<svg xmlns="http://www.w3.org/2000/svg" viewBox="0 0 1234 552">
  <defs>
    <style>
      .cls-1 {
        fill: #fff;
      }

      .cls-2 {
        stroke: #ff8df0;
      }

      .cls-3, .cls-4, .cls-5 {
        fill: none;
      }

      .cls-3 {
        stroke: #231f20;
        stroke-width: 16px;
      }

      .cls-4 {
        stroke: #9c0000;
        stroke-width: 12px;
      }

      .cls-5 {
        stroke: #fff;
        stroke-width: 0.75px;
      }
    </style>
  </defs>
  <g id="Star">
    <g>
      <polygon points="601.07 439.88 429.28 528.04 463.8 338.06 326.87 201.92 518.21 176.04 605.37 3.75 689.11 177.73 879.91 207.38 740.32 340.79 771.08 531.41 601.07 439.88"/>
      <path class="cls-1" d="M943.35,267,1026,438.69l.46.95,1,.16,188.27,29.26L1078,600.7l-.76.73.16,1,30.36,188.1L940,700.24l-.92-.49-.94.48-169.52,87,34.07-187.47.18-1-.74-.74L667,463.64l188.81-25.53,1-.14.47-.94,86-170m0-4.52L855.56,436.12,662.72,462.2l138,137.2L765.93,790.85,939.05,702l171.34,92.24-31-192.1,140.67-134.44-192.28-29.89L943.39,262.49Z" transform="translate(-338 -261)"/>
    </g>
    <g>
      <path class="cls-1" d="M955,266c83,0,163.47,7.27,239.23,21.6,73.09,13.83,138.7,33.61,195,58.8,56.06,25.08,100,54.22,130.64,86.6,31.27,33.07,47.12,68.06,47.12,104s-15.85,70.93-47.12,104c-30.62,32.38-74.58,61.52-130.64,86.6-56.31,25.19-121.92,45-195,58.8C1118.47,800.73,1038,808,955,808s-163.47-7.27-239.23-21.6c-73.09-13.83-138.7-33.61-195-58.8-56.06-25.08-100-54.22-130.64-86.6C358.85,607.93,343,572.94,343,537s15.85-70.93,47.12-104c30.62-32.38,74.58-61.52,130.64-86.6,56.31-25.19,121.92-45,195-58.8C791.53,273.27,872,266,955,266m0-5c-340.76,0-617,123.57-617,276S614.24,813,955,813s617-123.57,617-276S1295.76,261,955,261Z" transform="translate(-338 -261)"/>
      <path d="M955,264c83.11,0,163.72,7.28,239.61,21.64,73.24,13.85,139,33.69,195.45,58.94,56.3,25.18,100.47,54.47,131.27,87.05C1553,465.08,1569,500.53,1569,537s-16,71.92-47.67,105.37c-30.8,32.58-75,61.87-131.27,87-56.45,25.25-122.21,45.09-195.45,58.94C1118.72,802.72,1038.11,810,955,810s-163.72-7.28-239.61-21.64c-73.24-13.85-139-33.69-195.45-58.94s-100.47-54.47-131.27-87C357,608.92,341,573.47,341,537s16-71.92,47.67-105.37c30.8-32.58,75-61.87,131.27-87.05s122.21-45.09,195.45-58.94C791.28,271.28,871.89,264,955,264m0-3c-340.76,0-617,123.57-617,276S614.24,813,955,813s617-123.57,617-276S1295.76,261,955,261Z" transform="translate(-338 -261)"/>
      <path class="cls-1" d="M955,263c339.11,0,615,122.92,615,274S1294.11,811,955,811,340,688.08,340,537,615.89,263,955,263m0-2c-340.76,0-617,123.57-617,276S614.24,813,955,813s617-123.57,617-276S1295.76,261,955,261Z" transform="translate(-338 -261)"/>
    </g>
  </g>
  <g id="Text">
    <g>
      <g>
        <path d="M769.16,449.21c.22-1.12.41-2.09.62-3.21a268.91,268.91,0,0,0,4-37.56c-7,1.55-10.55,2.32-17.71,3.87-1.77,10.53-4.29,21-6.79,31.37L707.51,442c25.16-33.32,40.59-76.4,51.6-116.31,7.38,1.74,11.07,2.61,18.46,4.37,2.61,22,5.63,44.05,12,65.37,0,0,7.87-1.89,10.37-2.69,2.8,17.17,6.44,34.14,9.71,51.21Q789.44,446.65,769.16,449.21Zm.26-97.61c-4.53,16.89-7.94,34.1-11.59,51.2,6.47-1.43,9.67-2.15,16-3.58C773.46,383.19,772.61,367.35,769.42,351.6Z" transform="translate(-338 -261)"/>
        <path class="cls-2" d="M855.88,442.78c-9-.06-18.4.34-27.53.42,3.62-40.7-1-82.55-3.65-123.17,12.21-.23,24.42-.42,36.63-.87-2,33.13-3.68,66.21-7.65,99.18,2.37.18,4.75.2,7,.22a134.46,134.46,0,0,0,21.77-1.63c-.51,5.1-1.28,11.43-1.62,16.84-.27,4.45-.22,8.23.55,10.74A187.89,187.89,0,0,0,855.88,442.78Z" transform="translate(-338 -261)"/>
        <path d="M890.85,444.56c5.55-28,9.59-55.87,11.07-84.37l20.29,1.71c.76,27.4,4.55,54.64,5.72,82Q909.39,444.27,890.85,444.56ZM925.94,348a11.23,11.23,0,0,0,.17,2.47,82.3,82.3,0,0,0-13.57-1.16A56.43,56.43,0,0,0,899,350.83a21.66,21.66,0,0,0,.12-3.61,186.47,186.47,0,0,0-3.68-35.43s2,1,12.15,1c5.07,0,12.27-.2,22.23-1A185.87,185.87,0,0,0,925.94,348Z" transform="translate(-338 -261)"/>
        <path d="M981.3,442c-15.8.14-31.14-12.71-36-26.22a93.12,93.12,0,0,1-5.86-32.55,100.42,100.42,0,0,1,2.89-22.92C946,344,960,324,977.76,323.93c24.44-.07,32.73,34.41,36.71,53.43q-14.47.83-29,1.63c-.8-10.29-1-40.43-9-43.1-2.06-.7-6.3,10.31-7.87,21.81a153.84,153.84,0,0,0,1.92,58.92c2.11,10.06,4.85,15,7.46,15,3.07,0,5.66-7.22,5.65-22.8,0-3-.16-6.55-.32-10.31q15.58,1.8,31.18,3.53C1010.59,419.79,1003.24,441.78,981.3,442Z" transform="translate(-338 -261)"/>
        <path d="M1024.59,444.72c2.77-28.17,6.3-56.18,7.83-84.47l20.26,1.61c.58,27.44,5.23,54.8,8.82,81.95Q1043.05,444.28,1024.59,444.72Zm32-96.73a11.38,11.38,0,0,0,.13,2.47,83.21,83.21,0,0,0-13.57-1.11,56.41,56.41,0,0,0-13.57,1.54,22.79,22.79,0,0,0,.18-3.61,210.21,210.21,0,0,0-2.64-35.47s2,1,12.09,1c5.06,0,12.28-.21,22.28-1A169,169,0,0,0,1056.59,348Z" transform="translate(-338 -261)"/>
        <path d="M1129.8,449.7c-.14-1.11-.25-2.05-.38-3.16q-2.24-18.44-4.2-36.92c-6.49,1.79-9.77,2.71-16.15,4.41a221.62,221.62,0,0,0,.55,30.6q-18.69-.4-37.38-.87c13.36-38,23.61-77.37,33-116.55,7.17,1.67,10.85,2.4,18.17,3.92,3,22.22,7,44.18,15.56,65,0,0,7.54-2.23,10-3.15,4.88,17.59,10.49,34.63,19.06,50.8Q1148.88,446.78,1129.8,449.7ZM1116,353.33c-3.61,16.9-5.24,34.2-6.64,51.39,5.79-1.59,8.81-2.48,14.73-4.16C1122,384.66,1119.5,369,1116,353.33Z" transform="translate(-338 -261)"/>
        <path d="M542.92,656.82a22.08,22.08,0,0,1-9.55-1.9c-19.58-8.59-17-38.1-15.45-54.74l-8.53,4.62c-5.14,14.23-9.47,28.7-14.06,43.1l-46.21,1.35c13.77-26,26.52-52.87,38.07-79.75,4.53-10.56,9.08-21.34,12.53-32.4l27.93-2.74c-7.14,13.09-14.17,26.25-20.2,39.89a185.33,185.33,0,0,0-8.5,22.32c19.12-8.61,35.56-24,44.4-42.91,3.75-8,5.57-20,3.2-28.78l50-6c.5,4.53,4,15.48-.61,27-5,12.52-16.41,19.92-27.71,27l-30.87,16.71c-1.26,9.21-4.35,32.58,3.68,34.73,1.22.32,4.07-2.25,6.21-6.92a79.16,79.16,0,0,0,5.15-18q25.53-9.85,51-19.8c-1.37,11.36-3.43,22.23-8.14,32.57C586.13,632.29,566.19,656,542.92,656.82Z" transform="translate(-338 -261)"/>
        <path d="M664.71,654.37l1.58-3.91c5.68-14.15,11.15-28.46,16.16-42.91l-23.27,5.09c-6.13,11.79-11.93,23.55-17.37,35.66q-24.82-.3-49.65-.55c34-37.48,69.25-76,96.77-118.63l22,3c-1.76,20.35-5.5,40.36-4.52,60.87,0,0,10.41-2.38,13.78-3.34-2.17,19-3.22,38-3.5,57.16Q690.71,650.64,664.71,654.37Zm30.81-102.92c-11.33,16.35-21.2,33.71-31,51l21.07-4.64C690,582.56,694.33,567.36,695.52,551.45Z" transform="translate(-338 -261)"/>
        <path d="M819.46,555.14h-.93c-3.69,30.22-7.08,60.48-11,90.67-16,.12-32,.39-48,.61,15.08-32.9,30.22-66,42-100.22l-4.63.07c-11.15.19-22.25,1.78-33.3,3.24,1.89-5.19,4.14-11.57,5.54-17.07,1.15-4.52,1.73-8.37,1.4-10.76a199.71,199.71,0,0,0,25.41,1.11c8.4-.11,17.16-.53,27.09-1-.46,2.22-1.65,7.77-1.35,8.11,2,2.28,26.17-3,39.16-5.3-1,4-1.86,7.92-2.59,12.09-1.19,6.73-2.19,14-3,21.13A212.35,212.35,0,0,0,819.46,555.14Z" transform="translate(-338 -261)"/>
        <path d="M901.47,645.45c-.39,0-.62,0-.8-.2-29.9-.19-40.21-28.21-41-53.56q19.14,2.41,38.28,4.88c-.89,9.36-3.45,36.18,4.39,38.59,2.32.72,7.67-6.27,10-11.61a63.48,63.48,0,0,0,4.4-17.1c1-9.31-.77-18.23-9.94-20-10.19-1.79-47.12-.75-42.33-20.26,5-20.27,24.07-45,46.06-45.64h.51c22.19.32,35.07,22.42,36,42.34l-33.63,6.25a58.22,58.22,0,0,0,.82-6c.66-7.4,2.61-28.45-4-30.36-1.91-.54-6.32,4.9-9.64,12.92-2.71,6.57-4.41,12.12-5,16.52-1.38,10.15,3.34,14.09,13,14.34,13.88.37,46.09,1.62,44.52,22.21C951.47,620.06,922.29,644.71,901.47,645.45Z" transform="translate(-338 -261)"/>
        <path d="M1054.72,584.35c1.16,26.2-16.27,56.69-44.62,57-1.22,0-2.47-.21-3.7-.21-27.88-1.89-42-33.36-41.48-57.64.05-2.46.31-5.11.56-7.72,2.87-22.69,18.4-49.83,44.14-49.87,1,0,2,.16,3.06.16,24.56,2.46,38.75,28.44,41.46,50.56C1054.43,579.07,1054.58,581.7,1054.72,584.35Zm-35-4.51c-1.91-11.84-3.17-36.26-15.14-43.53h-.17c-8.19,6.78-6.6,22.16-6.31,31.86.11,3.94.43,8.29.77,12.87,1.7,13,8.86,48.29,16.25,47.94,5.56-.27,6.53-27.07,6.06-36C1020.93,588.75,1020.36,584.23,1019.7,579.84Z" transform="translate(-338 -261)"/>
        <path d="M1163,572.41c1.36,4.82,2.23,7.8,2.23,7.8,8.86,27.66.8,68.94-34.39,69.25a27.52,27.52,0,0,1-4.22-.22c-31.47-3.09-44.88-43.65-49.57-69.53l-10.38.29c-.49-4.73-1.09-9-1.62-12.8-1.43-10.05-2.93-20.18-5-30.17q14.1.59,28.2,1.19a195.53,195.53,0,0,0,3,27.29c3.36,17.51,17.72,69.32,31.29,68.8,8.92-.34,5.43-33.76,3.09-43.71-.8-3.38-1.91-6.57-2.66-9.89l-.28-1.22c-4.15-18.18-9.49-36.15-14.53-54.13q21.69-.93,43.4-1.75C1154.58,540.11,1158.39,556.27,1163,572.41Z" transform="translate(-338 -261)"/>
        <path d="M1305.27,669.31a40.56,40.56,0,0,1-9.22-1.45c-32-9-58.2-39.45-78.94-63.57a18.89,18.89,0,0,1-1.73-1.48A388.14,388.14,0,0,0,1234.85,645l-35.62.47c-4.82-17.4-9.41-34.92-14.81-52.12-5-16-10.75-31.73-16.6-47.42l9.41-.83c5,8,7.59,12,12.93,20.29-.27-.85-.58-1.73-.82-2.55-6.26-22.31.19-51.83,29.14-51.74,17.86.06,32.65,13.89,39.26,29.94.64,1.49,1,3,1.57,4.47,8.69,21.76,1.36,54.25-22.91,62.74,11.43,12.94,28.56,35.6,45.23,37.45,1.92.21,2.86-1.67,1.63-4.39-4.6-10.23-14.63-18.85-23.09-26.66q14.13-10.51,28.41-20.83c11.3,12,22.7,25.13,29.33,40.2C1323.58,646.88,1324.88,669.39,1305.27,669.31Zm-98-139.49c-.19,0-.26,0-.38,0-7.33,2.4-6,19.62-4.82,29.7a116.64,116.64,0,0,0,4,15.06c3.56,10.41,8.27,18.18,12.23,18.63a1,1,0,0,0,.4,0c6.74-2.51,4.67-20.94,3.21-31.24a117.91,117.91,0,0,0-4.18-14.87C1214.09,537,1210.94,530.2,1207.26,529.82Z" transform="translate(-338 -261)"/>
        <path d="M1336.8,648.22c-8.56-30-15.8-60.51-27-89.71l28.63,2.29c14.52,30,33.16,58,49,87.27Q1362.11,648.13,1336.8,648.22ZM1338,548.15a9.2,9.2,0,0,0,1.21,2.25,188.45,188.45,0,0,0-19.22-1.51,103.12,103.12,0,0,0-17.86.92,23.42,23.42,0,0,0-1.2-3.24c-3.84-9.73-7.91-20.38-13.62-29.58,0,0,2.8.85,16.23,1.07,9.87.17,19.75-.09,29.63-.35C1333.12,527.86,1334.58,539.2,1338,548.15Z" transform="translate(-338 -261)"/>
        <path d="M1458.53,650.14a1.56,1.56,0,0,1-1-.19c-33.76-2-59.76-25.37-78.24-51.92q23.73,3.16,47.45,6.28c5.59,11.06,15.45,34.64,27.15,36.61,3.17.53,5-5.66,4.78-10.39a51.48,51.48,0,0,0-4.29-16c-4.3-9.76-12.31-18-23.18-19.92-19.93-3.47-53.76-1.46-63.64-22.37s4.61-47.5,29.48-46.86h.66c28.36,1.7,57.21,22.09,70.63,46.9q-19.69,2.46-39.37,5a64.34,64.34,0,0,0-2.54-6.13c-4.38-9.4-12.52-30.76-23.13-32.43-3.09-.49-5.91,5.1-5,13.5a58.17,58.17,0,0,0,4.26,17.18c4.38,9.94,14.27,15.13,24.86,15.3,19.76.32,57,2.53,66.14,23.74C1501.78,627.51,1476.52,650.12,1458.53,650.14Z" transform="translate(-338 -261)"/>
      </g>
      <g>
        <path class="cls-3" d="M769.16,449.21c.22-1.12.41-2.09.62-3.21a268.91,268.91,0,0,0,4-37.56c-7,1.55-10.55,2.32-17.71,3.87-1.77,10.53-4.29,21-6.79,31.37L707.51,442c25.16-33.32,40.59-76.4,51.6-116.31,7.38,1.74,11.07,2.61,18.46,4.37,2.61,22,5.63,44.05,12,65.37,0,0,7.87-1.89,10.37-2.69,2.8,17.17,6.44,34.14,9.71,51.21Q789.44,446.65,769.16,449.21Zm.26-97.61c-4.53,16.89-7.94,34.1-11.59,51.2,6.47-1.43,9.67-2.15,16-3.58C773.46,383.19,772.61,367.35,769.42,351.6Z" transform="translate(-338 -261)"/>
        <path class="cls-3" d="M855.88,442.78c-9-.06-18.4.34-27.53.42,3.62-40.7-1-82.55-3.65-123.17,12.21-.23,24.42-.42,36.63-.87-2,33.13-3.68,66.21-7.65,99.18,2.37.18,4.75.2,7,.22a134.46,134.46,0,0,0,21.77-1.63c-.51,5.1-1.28,11.43-1.62,16.84-.27,4.45-.22,8.23.55,10.74A187.89,187.89,0,0,0,855.88,442.78Z" transform="translate(-338 -261)"/>
        <path class="cls-3" d="M890.85,444.56c5.55-28,9.59-55.87,11.07-84.37l20.29,1.71c.76,27.4,4.55,54.64,5.72,82Q909.39,444.27,890.85,444.56ZM925.94,348a11.23,11.23,0,0,0,.17,2.47,82.3,82.3,0,0,0-13.57-1.16A56.43,56.43,0,0,0,899,350.83a21.66,21.66,0,0,0,.12-3.61,186.47,186.47,0,0,0-3.68-35.43s2,1,12.15,1c5.07,0,12.27-.2,22.23-1A185.87,185.87,0,0,0,925.94,348Z" transform="translate(-338 -261)"/>
        <path class="cls-3" d="M981.3,442c-15.8.14-31.14-12.71-36-26.22a93.12,93.12,0,0,1-5.86-32.55,100.42,100.42,0,0,1,2.89-22.92C946,344,960,324,977.76,323.93c24.44-.07,32.73,34.41,36.71,53.43q-14.47.83-29,1.63c-.8-10.29-1-40.43-9-43.1-2.06-.7-6.3,10.31-7.87,21.81a153.84,153.84,0,0,0,1.92,58.92c2.11,10.06,4.85,15,7.46,15,3.07,0,5.66-7.22,5.65-22.8,0-3-.16-6.55-.32-10.31q15.58,1.8,31.18,3.53C1010.59,419.79,1003.24,441.78,981.3,442Z" transform="translate(-338 -261)"/>
        <path class="cls-3" d="M1024.59,444.72c2.77-28.17,6.3-56.18,7.83-84.47l20.26,1.61c.58,27.44,5.23,54.8,8.82,81.95Q1043.05,444.28,1024.59,444.72Zm32-96.73a11.38,11.38,0,0,0,.13,2.47,83.21,83.21,0,0,0-13.57-1.11,56.41,56.41,0,0,0-13.57,1.54,22.79,22.79,0,0,0,.18-3.61,210.21,210.21,0,0,0-2.64-35.47s2,1,12.09,1c5.06,0,12.28-.21,22.28-1A169,169,0,0,0,1056.59,348Z" transform="translate(-338 -261)"/>
        <path class="cls-3" d="M1129.8,449.7c-.14-1.11-.25-2.05-.38-3.16q-2.24-18.44-4.2-36.92c-6.49,1.79-9.77,2.71-16.15,4.41a221.62,221.62,0,0,0,.55,30.6q-18.69-.4-37.38-.87c13.36-38,23.61-77.37,33-116.55,7.17,1.67,10.85,2.4,18.17,3.92,3,22.22,7,44.18,15.56,65,0,0,7.54-2.23,10-3.15,4.88,17.59,10.49,34.63,19.06,50.8Q1148.88,446.78,1129.8,449.7ZM1116,353.33c-3.61,16.9-5.24,34.2-6.64,51.39,5.79-1.59,8.81-2.48,14.73-4.16C1122,384.66,1119.5,369,1116,353.33Z" transform="translate(-338 -261)"/>
        <path class="cls-3" d="M542.92,656.82a22.08,22.08,0,0,1-9.55-1.9c-19.58-8.59-17-38.1-15.45-54.74l-8.53,4.62c-5.14,14.23-9.47,28.7-14.06,43.1l-46.21,1.35c13.77-26,26.52-52.87,38.07-79.75,4.53-10.56,9.08-21.34,12.53-32.4l27.93-2.74c-7.14,13.09-14.17,26.25-20.2,39.89a185.33,185.33,0,0,0-8.5,22.32c19.12-8.61,35.56-24,44.4-42.91,3.75-8,5.57-20,3.2-28.78l50-6c.5,4.53,4,15.48-.61,27-5,12.52-16.41,19.92-27.71,27l-30.87,16.71c-1.26,9.21-4.35,32.58,3.68,34.73,1.22.32,4.07-2.25,6.21-6.92a79.16,79.16,0,0,0,5.15-18q25.53-9.85,51-19.8c-1.37,11.36-3.43,22.23-8.14,32.57C586.13,632.29,566.19,656,542.92,656.82Z" transform="translate(-338 -261)"/>
        <path class="cls-3" d="M664.71,654.37l1.58-3.91c5.68-14.15,11.15-28.46,16.16-42.91l-23.27,5.09c-6.13,11.79-11.93,23.55-17.37,35.66q-24.82-.3-49.65-.55c34-37.48,69.25-76,96.77-118.63l22,3c-1.76,20.35-5.5,40.36-4.52,60.87,0,0,10.41-2.38,13.78-3.34-2.17,19-3.22,38-3.5,57.16Q690.71,650.64,664.71,654.37Zm30.81-102.92c-11.33,16.35-21.2,33.71-31,51l21.07-4.64C690,582.56,694.33,567.36,695.52,551.45Z" transform="translate(-338 -261)"/>
        <path class="cls-3" d="M819.46,555.14h-.93c-3.69,30.22-7.08,60.48-11,90.67-16,.12-32,.39-48,.61,15.08-32.9,30.22-66,42-100.22l-4.63.07c-11.15.19-22.25,1.78-33.3,3.24,1.89-5.19,4.14-11.57,5.54-17.07,1.15-4.52,1.73-8.37,1.4-10.76a199.71,199.71,0,0,0,25.41,1.11c8.4-.11,17.16-.53,27.09-1-.46,2.22-1.65,7.77-1.35,8.11,2,2.28,26.17-3,39.16-5.3-1,4-1.86,7.92-2.59,12.09-1.19,6.73-2.19,14-3,21.13A212.35,212.35,0,0,0,819.46,555.14Z" transform="translate(-338 -261)"/>
        <path class="cls-3" d="M901.47,645.45c-.39,0-.62,0-.8-.2-29.9-.19-40.21-28.21-41-53.56q19.14,2.41,38.28,4.88c-.89,9.36-3.45,36.18,4.39,38.59,2.32.72,7.67-6.27,10-11.61a63.48,63.48,0,0,0,4.4-17.1c1-9.31-.77-18.23-9.94-20-10.19-1.79-47.12-.75-42.33-20.26,5-20.27,24.07-45,46.06-45.64h.51c22.19.32,35.07,22.42,36,42.34l-33.63,6.25a58.22,58.22,0,0,0,.82-6c.66-7.4,2.61-28.45-4-30.36-1.91-.54-6.32,4.9-9.64,12.92-2.71,6.57-4.41,12.12-5,16.52-1.38,10.15,3.34,14.09,13,14.34,13.88.37,46.09,1.62,44.52,22.21C951.47,620.06,922.29,644.71,901.47,645.45Z" transform="translate(-338 -261)"/>
        <path class="cls-3" d="M1054.72,584.35c1.16,26.2-16.27,56.69-44.62,57-1.22,0-2.47-.21-3.7-.21-27.88-1.89-42-33.36-41.48-57.64.05-2.46.31-5.11.56-7.72,2.87-22.69,18.4-49.83,44.14-49.87,1,0,2,.16,3.06.16,24.56,2.46,38.75,28.44,41.46,50.56C1054.43,579.07,1054.58,581.7,1054.72,584.35Zm-35-4.51c-1.91-11.84-3.17-36.26-15.14-43.53h-.17c-8.19,6.78-6.6,22.16-6.31,31.86.11,3.94.43,8.29.77,12.87,1.7,13,8.86,48.29,16.25,47.94,5.56-.27,6.53-27.07,6.06-36C1020.93,588.75,1020.36,584.23,1019.7,579.84Z" transform="translate(-338 -261)"/>
        <path class="cls-3" d="M1163,572.41c1.36,4.82,2.23,7.8,2.23,7.8,8.86,27.66.8,68.94-34.39,69.25a27.52,27.52,0,0,1-4.22-.22c-31.47-3.09-44.88-43.65-49.57-69.53l-10.38.29c-.49-4.73-1.09-9-1.62-12.8-1.43-10.05-2.93-20.18-5-30.17q14.1.59,28.2,1.19a195.53,195.53,0,0,0,3,27.29c3.36,17.51,17.72,69.32,31.29,68.8,8.92-.34,5.43-33.76,3.09-43.71-.8-3.38-1.91-6.57-2.66-9.89l-.28-1.22c-4.15-18.18-9.49-36.15-14.53-54.13q21.69-.93,43.4-1.75C1154.58,540.11,1158.39,556.27,1163,572.41Z" transform="translate(-338 -261)"/>
        <path class="cls-3" d="M1305.27,669.31a40.56,40.56,0,0,1-9.22-1.45c-32-9-58.2-39.45-78.94-63.57a18.89,18.89,0,0,1-1.73-1.48A388.14,388.14,0,0,0,1234.85,645l-35.62.47c-4.82-17.4-9.41-34.92-14.81-52.12-5-16-10.75-31.73-16.6-47.42l9.41-.83c5,8,7.59,12,12.93,20.29-.27-.85-.58-1.73-.82-2.55-6.26-22.31.19-51.83,29.14-51.74,17.86.06,32.65,13.89,39.26,29.94.64,1.49,1,3,1.57,4.47,8.69,21.76,1.36,54.25-22.91,62.74,11.43,12.94,28.56,35.6,45.23,37.45,1.92.21,2.86-1.67,1.63-4.39-4.6-10.23-14.63-18.85-23.09-26.66q14.13-10.51,28.41-20.83c11.3,12,22.7,25.13,29.33,40.2C1323.58,646.88,1324.88,669.39,1305.27,669.31Zm-98-139.49c-.19,0-.26,0-.38,0-7.33,2.4-6,19.62-4.82,29.7a116.64,116.64,0,0,0,4,15.06c3.56,10.41,8.27,18.18,12.23,18.63a1,1,0,0,0,.4,0c6.74-2.51,4.67-20.94,3.21-31.24a117.91,117.91,0,0,0-4.18-14.87C1214.09,537,1210.94,530.2,1207.26,529.82Z" transform="translate(-338 -261)"/>
        <path class="cls-3" d="M1336.8,648.22c-8.56-30-15.8-60.51-27-89.71l28.63,2.29c14.52,30,33.16,58,49,87.27Q1362.11,648.13,1336.8,648.22ZM1338,548.15a9.2,9.2,0,0,0,1.21,2.25,188.45,188.45,0,0,0-19.22-1.51,103.12,103.12,0,0,0-17.86.92,23.42,23.42,0,0,0-1.2-3.24c-3.84-9.73-7.91-20.38-13.62-29.58,0,0,2.8.85,16.23,1.07,9.87.17,19.75-.09,29.63-.35C1333.12,527.86,1334.58,539.2,1338,548.15Z" transform="translate(-338 -261)"/>
        <path class="cls-3" d="M1458.53,650.14a1.56,1.56,0,0,1-1-.19c-33.76-2-59.76-25.37-78.24-51.92q23.73,3.16,47.45,6.28c5.59,11.06,15.45,34.64,27.15,36.61,3.17.53,5-5.66,4.78-10.39a51.48,51.48,0,0,0-4.29-16c-4.3-9.76-12.31-18-23.18-19.92-19.93-3.47-53.76-1.46-63.64-22.37s4.61-47.5,29.48-46.86h.66c28.36,1.7,57.21,22.09,70.63,46.9q-19.69,2.46-39.37,5a64.34,64.34,0,0,0-2.54-6.13c-4.38-9.4-12.52-30.76-23.13-32.43-3.09-.49-5.91,5.1-5,13.5a58.17,58.17,0,0,0,4.26,17.18c4.38,9.94,14.27,15.13,24.86,15.3,19.76.32,57,2.53,66.14,23.74C1501.78,627.51,1476.52,650.12,1458.53,650.14Z" transform="translate(-338 -261)"/>
      </g>
      <g>
        <path class="cls-4" d="M769.16,449.21c.22-1.12.41-2.09.62-3.21a268.91,268.91,0,0,0,4-37.56c-7,1.55-10.55,2.32-17.71,3.87-1.77,10.53-4.29,21-6.79,31.37L707.51,442c25.16-33.32,40.59-76.4,51.6-116.31,7.38,1.74,11.07,2.61,18.46,4.37,2.61,22,5.63,44.05,12,65.37,0,0,7.87-1.89,10.37-2.69,2.8,17.17,6.44,34.14,9.71,51.21Q789.44,446.65,769.16,449.21Zm.26-97.61c-4.53,16.89-7.94,34.1-11.59,51.2,6.47-1.43,9.67-2.15,16-3.58C773.46,383.19,772.61,367.35,769.42,351.6Z" transform="translate(-338 -261)"/>
        <path class="cls-4" d="M855.88,442.78c-9-.06-18.4.34-27.53.42,3.62-40.7-1-82.55-3.65-123.17,12.21-.23,24.42-.42,36.63-.87-2,33.13-3.68,66.21-7.65,99.18,2.37.18,4.75.2,7,.22a134.46,134.46,0,0,0,21.77-1.63c-.51,5.1-1.28,11.43-1.62,16.84-.27,4.45-.22,8.23.55,10.74A187.89,187.89,0,0,0,855.88,442.78Z" transform="translate(-338 -261)"/>
        <path class="cls-4" d="M890.85,444.56c5.55-28,9.59-55.87,11.07-84.37l20.29,1.71c.76,27.4,4.55,54.64,5.72,82Q909.39,444.27,890.85,444.56ZM925.94,348a11.23,11.23,0,0,0,.17,2.47,82.3,82.3,0,0,0-13.57-1.16A56.43,56.43,0,0,0,899,350.83a21.66,21.66,0,0,0,.12-3.61,186.47,186.47,0,0,0-3.68-35.43s2,1,12.15,1c5.07,0,12.27-.2,22.23-1A185.87,185.87,0,0,0,925.94,348Z" transform="translate(-338 -261)"/>
        <path class="cls-4" d="M981.3,442c-15.8.14-31.14-12.71-36-26.22a93.12,93.12,0,0,1-5.86-32.55,100.42,100.42,0,0,1,2.89-22.92C946,344,960,324,977.76,323.93c24.44-.07,32.73,34.41,36.71,53.43q-14.47.83-29,1.63c-.8-10.29-1-40.43-9-43.1-2.06-.7-6.3,10.31-7.87,21.81a153.84,153.84,0,0,0,1.92,58.92c2.11,10.06,4.85,15,7.46,15,3.07,0,5.66-7.22,5.65-22.8,0-3-.16-6.55-.32-10.31q15.58,1.8,31.18,3.53C1010.59,419.79,1003.24,441.78,981.3,442Z" transform="translate(-338 -261)"/>
        <path class="cls-4" d="M1024.59,444.72c2.77-28.17,6.3-56.18,7.83-84.47l20.26,1.61c.58,27.44,5.23,54.8,8.82,81.95Q1043.05,444.28,1024.59,444.72Zm32-96.73a11.38,11.38,0,0,0,.13,2.47,83.21,83.21,0,0,0-13.57-1.11,56.41,56.41,0,0,0-13.57,1.54,22.79,22.79,0,0,0,.18-3.61,210.21,210.21,0,0,0-2.64-35.47s2,1,12.09,1c5.06,0,12.28-.21,22.28-1A169,169,0,0,0,1056.59,348Z" transform="translate(-338 -261)"/>
        <path class="cls-4" d="M1129.8,449.7c-.14-1.11-.25-2.05-.38-3.16q-2.24-18.44-4.2-36.92c-6.49,1.79-9.77,2.71-16.15,4.41a221.62,221.62,0,0,0,.55,30.6q-18.69-.4-37.38-.87c13.36-38,23.61-77.37,33-116.55,7.17,1.67,10.85,2.4,18.17,3.92,3,22.22,7,44.18,15.56,65,0,0,7.54-2.23,10-3.15,4.88,17.59,10.49,34.63,19.06,50.8Q1148.88,446.78,1129.8,449.7ZM1116,353.33c-3.61,16.9-5.24,34.2-6.64,51.39,5.79-1.59,8.81-2.48,14.73-4.16C1122,384.66,1119.5,369,1116,353.33Z" transform="translate(-338 -261)"/>
        <path class="cls-4" d="M542.92,656.82a22.08,22.08,0,0,1-9.55-1.9c-19.58-8.59-17-38.1-15.45-54.74l-8.53,4.62c-5.14,14.23-9.47,28.7-14.06,43.1l-46.21,1.35c13.77-26,26.52-52.87,38.07-79.75,4.53-10.56,9.08-21.34,12.53-32.4l27.93-2.74c-7.14,13.09-14.17,26.25-20.2,39.89a185.33,185.33,0,0,0-8.5,22.32c19.12-8.61,35.56-24,44.4-42.91,3.75-8,5.57-20,3.2-28.78l50-6c.5,4.53,4,15.48-.61,27-5,12.52-16.41,19.92-27.71,27l-30.87,16.71c-1.26,9.21-4.35,32.58,3.68,34.73,1.22.32,4.07-2.25,6.21-6.92a79.16,79.16,0,0,0,5.15-18q25.53-9.85,51-19.8c-1.37,11.36-3.43,22.23-8.14,32.57C586.13,632.29,566.19,656,542.92,656.82Z" transform="translate(-338 -261)"/>
        <path class="cls-4" d="M664.71,654.37l1.58-3.91c5.68-14.15,11.15-28.46,16.16-42.91l-23.27,5.09c-6.13,11.79-11.93,23.55-17.37,35.66q-24.82-.3-49.65-.55c34-37.48,69.25-76,96.77-118.63l22,3c-1.76,20.35-5.5,40.36-4.52,60.87,0,0,10.41-2.38,13.78-3.34-2.17,19-3.22,38-3.5,57.16Q690.71,650.64,664.71,654.37Zm30.81-102.92c-11.33,16.35-21.2,33.71-31,51l21.07-4.64C690,582.56,694.33,567.36,695.52,551.45Z" transform="translate(-338 -261)"/>
        <path class="cls-4" d="M819.46,555.14h-.93c-3.69,30.22-7.08,60.48-11,90.67-16,.12-32,.39-48,.61,15.08-32.9,30.22-66,42-100.22l-4.63.07c-11.15.19-22.25,1.78-33.3,3.24,1.89-5.19,4.14-11.57,5.54-17.07,1.15-4.52,1.73-8.37,1.4-10.76a199.71,199.71,0,0,0,25.41,1.11c8.4-.11,17.16-.53,27.09-1-.46,2.22-1.65,7.77-1.35,8.11,2,2.28,26.17-3,39.16-5.3-1,4-1.86,7.92-2.59,12.09-1.19,6.73-2.19,14-3,21.13A212.35,212.35,0,0,0,819.46,555.14Z" transform="translate(-338 -261)"/>
        <path class="cls-4" d="M901.47,645.45c-.39,0-.62,0-.8-.2-29.9-.19-40.21-28.21-41-53.56q19.14,2.41,38.28,4.88c-.89,9.36-3.45,36.18,4.39,38.59,2.32.72,7.67-6.27,10-11.61a63.48,63.48,0,0,0,4.4-17.1c1-9.31-.77-18.23-9.94-20-10.19-1.79-47.12-.75-42.33-20.26,5-20.27,24.07-45,46.06-45.64h.51c22.19.32,35.07,22.42,36,42.34l-33.63,6.25a58.22,58.22,0,0,0,.82-6c.66-7.4,2.61-28.45-4-30.36-1.91-.54-6.32,4.9-9.64,12.92-2.71,6.57-4.41,12.12-5,16.52-1.38,10.15,3.34,14.09,13,14.34,13.88.37,46.09,1.62,44.52,22.21C951.47,620.06,922.29,644.71,901.47,645.45Z" transform="translate(-338 -261)"/>
        <path class="cls-4" d="M1054.72,584.35c1.16,26.2-16.27,56.69-44.62,57-1.22,0-2.47-.21-3.7-.21-27.88-1.89-42-33.36-41.48-57.64.05-2.46.31-5.11.56-7.72,2.87-22.69,18.4-49.83,44.14-49.87,1,0,2,.16,3.06.16,24.56,2.46,38.75,28.44,41.46,50.56C1054.43,579.07,1054.58,581.7,1054.72,584.35Zm-35-4.51c-1.91-11.84-3.17-36.26-15.14-43.53h-.17c-8.19,6.78-6.6,22.16-6.31,31.86.11,3.94.43,8.29.77,12.87,1.7,13,8.86,48.29,16.25,47.94,5.56-.27,6.53-27.07,6.06-36C1020.93,588.75,1020.36,584.23,1019.7,579.84Z" transform="translate(-338 -261)"/>
        <path class="cls-4" d="M1163,572.41c1.36,4.82,2.23,7.8,2.23,7.8,8.86,27.66.8,68.94-34.39,69.25a27.52,27.52,0,0,1-4.22-.22c-31.47-3.09-44.88-43.65-49.57-69.53l-10.38.29c-.49-4.73-1.09-9-1.62-12.8-1.43-10.05-2.93-20.18-5-30.17q14.1.59,28.2,1.19a195.53,195.53,0,0,0,3,27.29c3.36,17.51,17.72,69.32,31.29,68.8,8.92-.34,5.43-33.76,3.09-43.71-.8-3.38-1.91-6.57-2.66-9.89l-.28-1.22c-4.15-18.18-9.49-36.15-14.53-54.13q21.69-.93,43.4-1.75C1154.58,540.11,1158.39,556.27,1163,572.41Z" transform="translate(-338 -261)"/>
        <path class="cls-4" d="M1305.27,669.31a40.56,40.56,0,0,1-9.22-1.45c-32-9-58.2-39.45-78.94-63.57a18.89,18.89,0,0,1-1.73-1.48A388.14,388.14,0,0,0,1234.85,645l-35.62.47c-4.82-17.4-9.41-34.92-14.81-52.12-5-16-10.75-31.73-16.6-47.42l9.41-.83c5,8,7.59,12,12.93,20.29-.27-.85-.58-1.73-.82-2.55-6.26-22.31.19-51.83,29.14-51.74,17.86.06,32.65,13.89,39.26,29.94.64,1.49,1,3,1.57,4.47,8.69,21.76,1.36,54.25-22.91,62.74,11.43,12.94,28.56,35.6,45.23,37.45,1.92.21,2.86-1.67,1.63-4.39-4.6-10.23-14.63-18.85-23.09-26.66q14.13-10.51,28.41-20.83c11.3,12,22.7,25.13,29.33,40.2C1323.58,646.88,1324.88,669.39,1305.27,669.31Zm-98-139.49c-.19,0-.26,0-.38,0-7.33,2.4-6,19.62-4.82,29.7a116.64,116.64,0,0,0,4,15.06c3.56,10.41,8.27,18.18,12.23,18.63a1,1,0,0,0,.4,0c6.74-2.51,4.67-20.94,3.21-31.24a117.91,117.91,0,0,0-4.18-14.87C1214.09,537,1210.94,530.2,1207.26,529.82Z" transform="translate(-338 -261)"/>
        <path class="cls-4" d="M1336.8,648.22c-8.56-30-15.8-60.51-27-89.71l28.63,2.29c14.52,30,33.16,58,49,87.27Q1362.11,648.13,1336.8,648.22ZM1338,548.15a9.2,9.2,0,0,0,1.21,2.25,188.45,188.45,0,0,0-19.22-1.51,103.12,103.12,0,0,0-17.86.92,23.42,23.42,0,0,0-1.2-3.24c-3.84-9.73-7.91-20.38-13.62-29.58,0,0,2.8.85,16.23,1.07,9.87.17,19.75-.09,29.63-.35C1333.12,527.86,1334.58,539.2,1338,548.15Z" transform="translate(-338 -261)"/>
        <path class="cls-4" d="M1458.53,650.14a1.56,1.56,0,0,1-1-.19c-33.76-2-59.76-25.37-78.24-51.92q23.73,3.16,47.45,6.28c5.59,11.06,15.45,34.64,27.15,36.61,3.17.53,5-5.66,4.78-10.39a51.48,51.48,0,0,0-4.29-16c-4.3-9.76-12.31-18-23.18-19.92-19.93-3.47-53.76-1.46-63.64-22.37s4.61-47.5,29.48-46.86h.66c28.36,1.7,57.21,22.09,70.63,46.9q-19.69,2.46-39.37,5a64.34,64.34,0,0,0-2.54-6.13c-4.38-9.4-12.52-30.76-23.13-32.43-3.09-.49-5.91,5.1-5,13.5a58.17,58.17,0,0,0,4.26,17.18c4.38,9.94,14.27,15.13,24.86,15.3,19.76.32,57,2.53,66.14,23.74C1501.78,627.51,1476.52,650.12,1458.53,650.14Z" transform="translate(-338 -261)"/>
      </g>
      <g>
        <path class="cls-5" d="M769.16,449.21c.22-1.12.41-2.09.62-3.21a268.91,268.91,0,0,0,4-37.56c-7,1.55-10.55,2.32-17.71,3.87-1.77,10.53-4.29,21-6.79,31.37L707.51,442c25.16-33.32,40.59-76.4,51.6-116.31,7.38,1.74,11.07,2.61,18.46,4.37,2.61,22,5.63,44.05,12,65.37,0,0,7.87-1.89,10.37-2.69,2.8,17.17,6.44,34.14,9.71,51.21Q789.44,446.65,769.16,449.21Zm.26-97.61c-4.53,16.89-7.94,34.1-11.59,51.2,6.47-1.43,9.67-2.15,16-3.58C773.46,383.19,772.61,367.35,769.42,351.6Z" transform="translate(-338 -261)"/>
        <path class="cls-5" d="M855.88,442.78c-9-.06-18.4.34-27.53.42,3.62-40.7-1-82.55-3.65-123.17,12.21-.23,24.42-.42,36.63-.87-2,33.13-3.68,66.21-7.65,99.18,2.37.18,4.75.2,7,.22a134.46,134.46,0,0,0,21.77-1.63c-.51,5.1-1.28,11.43-1.62,16.84-.27,4.45-.22,8.23.55,10.74A187.89,187.89,0,0,0,855.88,442.78Z" transform="translate(-338 -261)"/>
        <path class="cls-5" d="M890.85,444.56c5.55-28,9.59-55.87,11.07-84.37l20.29,1.71c.76,27.4,4.55,54.64,5.72,82Q909.39,444.27,890.85,444.56ZM925.94,348a11.23,11.23,0,0,0,.17,2.47,82.3,82.3,0,0,0-13.57-1.16A56.43,56.43,0,0,0,899,350.83a21.66,21.66,0,0,0,.12-3.61,186.47,186.47,0,0,0-3.68-35.43s2,1,12.15,1c5.07,0,12.27-.2,22.23-1A185.87,185.87,0,0,0,925.94,348Z" transform="translate(-338 -261)"/>
        <path class="cls-5" d="M981.3,442c-15.8.14-31.14-12.71-36-26.22a93.12,93.12,0,0,1-5.86-32.55,100.42,100.42,0,0,1,2.89-22.92C946,344,960,324,977.76,323.93c24.44-.07,32.73,34.41,36.71,53.43q-14.47.83-29,1.63c-.8-10.29-1-40.43-9-43.1-2.06-.7-6.3,10.31-7.87,21.81a153.84,153.84,0,0,0,1.92,58.92c2.11,10.06,4.85,15,7.46,15,3.07,0,5.66-7.22,5.65-22.8,0-3-.16-6.55-.32-10.31q15.58,1.8,31.18,3.53C1010.59,419.79,1003.24,441.78,981.3,442Z" transform="translate(-338 -261)"/>
        <path class="cls-5" d="M1024.59,444.72c2.77-28.17,6.3-56.18,7.83-84.47l20.26,1.61c.58,27.44,5.23,54.8,8.82,81.95Q1043.05,444.28,1024.59,444.72Zm32-96.73a11.38,11.38,0,0,0,.13,2.47,83.21,83.21,0,0,0-13.57-1.11,56.41,56.41,0,0,0-13.57,1.54,22.79,22.79,0,0,0,.18-3.61,210.21,210.21,0,0,0-2.64-35.47s2,1,12.09,1c5.06,0,12.28-.21,22.28-1A169,169,0,0,0,1056.59,348Z" transform="translate(-338 -261)"/>
        <path class="cls-5" d="M1129.8,449.7c-.14-1.11-.25-2.05-.38-3.16q-2.24-18.44-4.2-36.92c-6.49,1.79-9.77,2.71-16.15,4.41a221.62,221.62,0,0,0,.55,30.6q-18.69-.4-37.38-.87c13.36-38,23.61-77.37,33-116.55,7.17,1.67,10.85,2.4,18.17,3.92,3,22.22,7,44.18,15.56,65,0,0,7.54-2.23,10-3.15,4.88,17.59,10.49,34.63,19.06,50.8Q1148.88,446.78,1129.8,449.7ZM1116,353.33c-3.61,16.9-5.24,34.2-6.64,51.39,5.79-1.59,8.81-2.48,14.73-4.16C1122,384.66,1119.5,369,1116,353.33Z" transform="translate(-338 -261)"/>
        <path class="cls-5" d="M542.92,656.82a22.08,22.08,0,0,1-9.55-1.9c-19.58-8.59-17-38.1-15.45-54.74l-8.53,4.62c-5.14,14.23-9.47,28.7-14.06,43.1l-46.21,1.35c13.77-26,26.52-52.87,38.07-79.75,4.53-10.56,9.08-21.34,12.53-32.4l27.93-2.74c-7.14,13.09-14.17,26.25-20.2,39.89a185.33,185.33,0,0,0-8.5,22.32c19.12-8.61,35.56-24,44.4-42.91,3.75-8,5.57-20,3.2-28.78l50-6c.5,4.53,4,15.48-.61,27-5,12.52-16.41,19.92-27.71,27l-30.87,16.71c-1.26,9.21-4.35,32.58,3.68,34.73,1.22.32,4.07-2.25,6.21-6.92a79.16,79.16,0,0,0,5.15-18q25.53-9.85,51-19.8c-1.37,11.36-3.43,22.23-8.14,32.57C586.13,632.29,566.19,656,542.92,656.82Z" transform="translate(-338 -261)"/>
        <path class="cls-5" d="M664.71,654.37l1.58-3.91c5.68-14.15,11.15-28.46,16.16-42.91l-23.27,5.09c-6.13,11.79-11.93,23.55-17.37,35.66q-24.82-.3-49.65-.55c34-37.48,69.25-76,96.77-118.63l22,3c-1.76,20.35-5.5,40.36-4.52,60.87,0,0,10.41-2.38,13.78-3.34-2.17,19-3.22,38-3.5,57.16Q690.71,650.64,664.71,654.37Zm30.81-102.92c-11.33,16.35-21.2,33.71-31,51l21.07-4.64C690,582.56,694.33,567.36,695.52,551.45Z" transform="translate(-338 -261)"/>
        <path class="cls-5" d="M819.46,555.14h-.93c-3.69,30.22-7.08,60.48-11,90.67-16,.12-32,.39-48,.61,15.08-32.9,30.22-66,42-100.22l-4.63.07c-11.15.19-22.25,1.78-33.3,3.24,1.89-5.19,4.14-11.57,5.54-17.07,1.15-4.52,1.73-8.37,1.4-10.76a199.71,199.71,0,0,0,25.41,1.11c8.4-.11,17.16-.53,27.09-1-.46,2.22-1.65,7.77-1.35,8.11,2,2.28,26.17-3,39.16-5.3-1,4-1.86,7.92-2.59,12.09-1.19,6.73-2.19,14-3,21.13A212.35,212.35,0,0,0,819.46,555.14Z" transform="translate(-338 -261)"/>
        <path class="cls-5" d="M901.47,645.45c-.39,0-.62,0-.8-.2-29.9-.19-40.21-28.21-41-53.56q19.14,2.41,38.28,4.88c-.89,9.36-3.45,36.18,4.39,38.59,2.32.72,7.67-6.27,10-11.61a63.48,63.48,0,0,0,4.4-17.1c1-9.31-.77-18.23-9.94-20-10.19-1.79-47.12-.75-42.33-20.26,5-20.27,24.07-45,46.06-45.64h.51c22.19.32,35.07,22.42,36,42.34l-33.63,6.25a58.22,58.22,0,0,0,.82-6c.66-7.4,2.61-28.45-4-30.36-1.91-.54-6.32,4.9-9.64,12.92-2.71,6.57-4.41,12.12-5,16.52-1.38,10.15,3.34,14.09,13,14.34,13.88.37,46.09,1.62,44.52,22.21C951.47,620.06,922.29,644.71,901.47,645.45Z" transform="translate(-338 -261)"/>
        <path class="cls-5" d="M1054.72,584.35c1.16,26.2-16.27,56.69-44.62,57-1.22,0-2.47-.21-3.7-.21-27.88-1.89-42-33.36-41.48-57.64.05-2.46.31-5.11.56-7.72,2.87-22.69,18.4-49.83,44.14-49.87,1,0,2,.16,3.06.16,24.56,2.46,38.75,28.44,41.46,50.56C1054.43,579.07,1054.58,581.7,1054.72,584.35Zm-35-4.51c-1.91-11.84-3.17-36.26-15.14-43.53h-.17c-8.19,6.78-6.6,22.16-6.31,31.86.11,3.94.43,8.29.77,12.87,1.7,13,8.86,48.29,16.25,47.94,5.56-.27,6.53-27.07,6.06-36C1020.93,588.75,1020.36,584.23,1019.7,579.84Z" transform="translate(-338 -261)"/>
        <path class="cls-5" d="M1163,572.41c1.36,4.82,2.23,7.8,2.23,7.8,8.86,27.66.8,68.94-34.39,69.25a27.52,27.52,0,0,1-4.22-.22c-31.47-3.09-44.88-43.65-49.57-69.53l-10.38.29c-.49-4.73-1.09-9-1.62-12.8-1.43-10.05-2.93-20.18-5-30.17q14.1.59,28.2,1.19a195.53,195.53,0,0,0,3,27.29c3.36,17.51,17.72,69.32,31.29,68.8,8.92-.34,5.43-33.76,3.09-43.71-.8-3.38-1.91-6.57-2.66-9.89l-.28-1.22c-4.15-18.18-9.49-36.15-14.53-54.13q21.69-.93,43.4-1.75C1154.58,540.11,1158.39,556.27,1163,572.41Z" transform="translate(-338 -261)"/>
        <path class="cls-5" d="M1305.27,669.31a40.56,40.56,0,0,1-9.22-1.45c-32-9-58.2-39.45-78.94-63.57a18.89,18.89,0,0,1-1.73-1.48A388.14,388.14,0,0,0,1234.85,645l-35.62.47c-4.82-17.4-9.41-34.92-14.81-52.12-5-16-10.75-31.73-16.6-47.42l9.41-.83c5,8,7.59,12,12.93,20.29-.27-.85-.58-1.73-.82-2.55-6.26-22.31.19-51.83,29.14-51.74,17.86.06,32.65,13.89,39.26,29.94.64,1.49,1,3,1.57,4.47,8.69,21.76,1.36,54.25-22.91,62.74,11.43,12.94,28.56,35.6,45.23,37.45,1.92.21,2.86-1.67,1.63-4.39-4.6-10.23-14.63-18.85-23.09-26.66q14.13-10.51,28.41-20.83c11.3,12,22.7,25.13,29.33,40.2C1323.58,646.88,1324.88,669.39,1305.27,669.31Zm-98-139.49c-.19,0-.26,0-.38,0-7.33,2.4-6,19.62-4.82,29.7a116.64,116.64,0,0,0,4,15.06c3.56,10.41,8.27,18.18,12.23,18.63a1,1,0,0,0,.4,0c6.74-2.51,4.67-20.94,3.21-31.24a117.91,117.91,0,0,0-4.18-14.87C1214.09,537,1210.94,530.2,1207.26,529.82Z" transform="translate(-338 -261)"/>
        <path class="cls-5" d="M1336.8,648.22c-8.56-30-15.8-60.51-27-89.71l28.63,2.29c14.52,30,33.16,58,49,87.27Q1362.11,648.13,1336.8,648.22ZM1338,548.15a9.2,9.2,0,0,0,1.21,2.25,188.45,188.45,0,0,0-19.22-1.51,103.12,103.12,0,0,0-17.86.92,23.42,23.42,0,0,0-1.2-3.24c-3.84-9.73-7.91-20.38-13.62-29.58,0,0,2.8.85,16.23,1.07,9.87.17,19.75-.09,29.63-.35C1333.12,527.86,1334.58,539.2,1338,548.15Z" transform="translate(-338 -261)"/>
        <path class="cls-5" d="M1458.53,650.14a1.56,1.56,0,0,1-1-.19c-33.76-2-59.76-25.37-78.24-51.92q23.73,3.16,47.45,6.28c5.59,11.06,15.45,34.64,27.15,36.61,3.17.53,5-5.66,4.78-10.39a51.48,51.48,0,0,0-4.29-16c-4.3-9.76-12.31-18-23.18-19.92-19.93-3.47-53.76-1.46-63.64-22.37s4.61-47.5,29.48-46.86h.66c28.36,1.7,57.21,22.09,70.63,46.9q-19.69,2.46-39.37,5a64.34,64.34,0,0,0-2.54-6.13c-4.38-9.4-12.52-30.76-23.13-32.43-3.09-.49-5.91,5.1-5,13.5a58.17,58.17,0,0,0,4.26,17.18c4.38,9.94,14.27,15.13,24.86,15.3,19.76.32,57,2.53,66.14,23.74C1501.78,627.51,1476.52,650.12,1458.53,650.14Z" transform="translate(-338 -261)"/>
      </g>
    </g>
  </g>
</svg>
