<?xml version="1.0" encoding="utf-8"?>
<!-- Generator: Adobe Illustrator 25.1.0, SVG Export Plug-In . SVG Version: 6.00 Build 0)  -->
<svg version="1.1" xmlns="http://www.w3.org/2000/svg" xmlns:xlink="http://www.w3.org/1999/xlink" x="0px" y="0px"
	 viewBox="0 0 1920 1080" style="enable-background:new 0 0 1920 1080;" xml:space="preserve">
<style type="text/css">
	.st0{enable-background:new    ;}
	.st1{clip-path:url(#SVGID_2_);}
	.st2{stroke:#FF8DF0;}
	.st3{fill:none;stroke:#231F20;stroke-width:16;}
	.st4{fill:none;stroke:#9C0000;stroke-width:12;}
	.st5{fill:none;stroke:#FFFFFF;stroke-width:0.75;}
	.st6{fill:none;stroke:#000000;stroke-width:13;}
	.st7{fill:none;stroke:#FFFFFF;}
</style>
<g id="Layer_1">
</g>
<g id="Star">
	<g>
		<g>
			<g class="st0">
				<defs>
					<polygon id="SVGID_1_" class="st0" points="692.89,818.65 693.84,307.8 1189.9,238.09 1188.95,748.93 					"/>
				</defs>
				<clipPath id="SVGID_2_">
					<use xlink:href="#SVGID_1_"  style="overflow:visible;"/>
				</clipPath>
				<g class="st1">
					<g>
						<g>
							<g>
								<polyline points="943.64,272.7 865.16,450.49 693.48,499.67 816.06,614.2 784.76,802.47 939,695.47 1091.33,762.65 
									1064.08,581.98 1189.53,435.23 1018.45,430.58 943.64,272.7 								"/>
							</g>
						</g>
					</g>
				</g>
			</g>
		</g>
	</g>
</g>
<g id="Text">
	<g>
		<g>
			<g>
				<path d="M769.16,449.21c0.22-1.12,0.41-2.09,0.62-3.21c2.31-12.6,3.47-24.67,4.03-37.56c-7.01,1.55-10.55,2.32-17.71,3.87
					c-1.77,10.54-4.29,20.99-6.79,31.37c-13.93-0.54-27.86-1.1-41.79-1.65c25.16-33.32,40.59-76.4,51.6-116.31
					c7.37,1.74,11.07,2.62,18.46,4.37c2.61,22.04,5.63,44.05,12.04,65.37c0,0,7.87-1.88,10.38-2.69c2.79,17.17,6.43,34.14,9.7,51.22
					C796.19,445.76,782.68,447.5,769.16,449.21z M769.42,351.6c-4.53,16.89-7.94,34.11-11.59,51.2c6.47-1.43,9.67-2.14,16.02-3.58
					C773.46,383.19,772.61,367.35,769.42,351.6z"/>
				<path class="st2" d="M855.88,442.78c-9.02-0.06-18.4,0.34-27.53,0.42c3.62-40.69-1.01-82.55-3.65-123.17
					c12.21-0.24,24.42-0.42,36.63-0.87c-1.98,33.13-3.67,66.21-7.64,99.18c2.37,0.19,4.75,0.21,6.96,0.23
					c6.64,0.06,13.28-0.38,21.77-1.63c-0.52,5.1-1.28,11.43-1.62,16.84c-0.28,4.45-0.23,8.23,0.55,10.74
					C873.47,443.37,864.9,442.84,855.88,442.78z"/>
				<path d="M890.85,444.56c5.55-27.97,9.59-55.87,11.07-84.37c8.13,0.69,12.19,1.03,20.29,1.72c0.76,27.4,4.55,54.63,5.72,82.02
					C915.57,444.15,903.21,444.36,890.85,444.56z M925.94,348.04c-0.01,0.94,0.01,1.71,0.17,2.47c0,0-6.1-1.15-13.57-1.16
					c-4.27-0.01-9.15,0.36-13.58,1.48c0.14-0.94,0.15-2.09,0.12-3.61c-0.21-11.7-1.2-23.88-3.68-35.43c0,0,2.02,1.04,12.15,1.05
					c5.06,0,12.27-0.2,22.22-1.03C927.32,323.6,926.01,336.16,925.94,348.04z"/>
				<path d="M981.3,441.97c-15.79,0.14-31.14-12.71-36.05-26.22c-3.65-10.05-6-21.28-5.86-32.55c0.1-8.01,1.08-15.7,2.88-22.92
					c3.7-16.25,17.73-36.3,35.49-36.35c24.44-0.07,32.72,34.41,36.71,53.43c-9.65,0.55-19.31,1.1-28.96,1.63
					c-0.8-10.29-1.02-40.43-8.95-43.11c-2.06-0.7-6.3,10.31-7.88,21.81c-0.94,6.85-1.96,14.42-1.96,24.3
					c0,11.63,1.49,23.26,3.88,34.62c2.12,10.06,4.86,14.99,7.47,14.99c3.07,0,5.66-7.23,5.64-22.8c0-3.01-0.16-6.56-0.31-10.31
					c10.39,1.2,20.79,2.37,31.18,3.53C1010.59,419.79,1003.24,441.78,981.3,441.97z"/>
				<path d="M1024.59,444.72c2.77-28.17,6.3-56.18,7.83-84.47c8.09,0.65,12.14,0.97,20.26,1.61c0.58,27.43,5.23,54.8,8.82,81.94
					C1049.2,444.12,1036.9,444.43,1024.59,444.72z M1056.59,347.99c-0.02,0.94-0.02,1.71,0.13,2.47c0,0-6.1-1.12-13.57-1.11
					c-4.27,0.01-9.15,0.4-13.57,1.54c0.16-0.95,0.18-2.1,0.18-3.61c-0.01-11.69-0.61-23.85-2.64-35.47c0,0,1.98,1.04,12.1,1.03
					c5.06,0,12.27-0.21,22.27-1.05C1058.57,323.5,1056.87,336.1,1056.59,347.99z"/>
				<path d="M1129.8,449.7c-0.14-1.1-0.25-2.05-0.38-3.16c-1.48-12.29-2.88-24.6-4.19-36.92c-6.5,1.79-9.77,2.71-16.15,4.41
					c-0.44,10.1-0.42,20.53,0.55,30.6c-12.46-0.28-24.92-0.57-37.37-0.88c13.36-38.03,23.61-77.36,32.97-116.54
					c7.17,1.66,10.85,2.39,18.18,3.92c3.03,22.22,6.98,44.18,15.56,65.02c0,0,7.54-2.23,9.94-3.15
					c4.89,17.59,10.49,34.63,19.06,50.8C1155.24,445.79,1142.52,447.75,1129.8,449.7z M1116.02,353.33
					c-3.61,16.9-5.24,34.2-6.64,51.39c5.8-1.59,8.81-2.48,14.73-4.16C1122,384.66,1119.5,368.99,1116.02,353.33z"/>
				<path d="M542.92,656.82c-3.4,0.12-6.64-0.66-9.55-1.9c-19.58-8.6-17.04-38.11-15.45-54.74c-3.41,1.85-5.12,2.77-8.53,4.62
					c-5.15,14.23-9.47,28.69-14.06,43.1c-15.4,0.45-30.8,0.9-46.21,1.34c13.76-26.05,26.52-52.87,38.06-79.75
					c4.54-10.56,9.08-21.34,12.53-32.4c9.31-0.91,18.62-1.82,27.93-2.74c-7.14,13.09-14.17,26.25-20.2,39.9
					c-3.88,8.78-6.84,16.52-8.51,22.31c19.12-8.6,35.56-24.01,44.41-42.91c3.74-8,5.57-19.98,3.2-28.78c16.65-2,33.3-4,49.95-6
					c0.49,4.52,3.98,15.48-0.62,27.05c-4.98,12.51-16.41,19.92-27.7,27.03c-10.29,5.58-20.58,11.15-30.87,16.71
					c-1.26,9.21-4.35,32.58,3.67,34.73c1.22,0.33,4.07-2.25,6.21-6.92c1.81-3.95,3.71-10.02,5.15-17.95
					c17.02-6.57,34.02-13.17,51.02-19.8c-1.37,11.36-3.42,22.23-8.13,32.57C586.13,632.29,566.19,655.97,542.92,656.82z"/>
				<path d="M664.71,654.37c0.56-1.37,1.04-2.55,1.58-3.91c5.68-14.15,11.15-28.46,16.15-42.91c-9.24,2.03-13.9,3.05-23.27,5.09
					c-6.12,11.79-11.92,23.54-17.37,35.66c-16.55-0.2-33.1-0.39-49.65-0.56c33.99-37.48,69.25-76.03,96.77-118.62
					c8.88,1.21,13.28,1.81,22.02,3.02c-1.76,20.34-5.49,40.35-4.52,60.87c0,0,10.41-2.38,13.79-3.35c-2.18,19.04-3.22,38-3.51,57.16
					C699.38,649.37,682.05,651.89,664.71,654.37z M695.52,551.45c-11.33,16.35-21.2,33.72-31.01,51c8.48-1.86,12.7-2.79,21.07-4.64
					C690.04,582.56,694.33,567.36,695.52,551.45z"/>
				<path d="M819.46,555.14c-0.37,0-0.56,0.01-0.93,0.02c-3.69,30.22-7.08,60.48-11.04,90.67c-16.02,0.12-32.03,0.39-48.05,0.61
					c15.08-32.9,30.22-65.96,42-100.22c-1.48,0.02-2.96,0.05-4.63,0.07c-11.15,0.19-22.25,1.78-33.3,3.23
					c1.89-5.19,4.14-11.57,5.54-17.06c1.15-4.53,1.73-8.37,1.4-10.76c8.82,1,17.02,1.21,25.42,1.1c8.39-0.11,17.16-0.53,27.08-0.95
					c-0.46,2.22-1.65,7.76-1.35,8.11c2.02,2.28,26.17-3.04,39.16-5.31c-1,3.95-1.85,7.92-2.59,12.09
					c-1.19,6.74-2.19,13.95-3.04,21.13C843.37,556.02,831.33,554.98,819.46,555.14z"/>
				<path d="M901.47,645.45c-0.4,0.01-0.62,0-0.8-0.2c-29.91-0.19-40.21-28.21-40.98-53.56c12.76,1.61,25.53,3.24,38.29,4.88
					c-0.9,9.36-3.45,36.18,4.38,38.59c2.32,0.72,7.67-6.27,10.02-11.61c1.72-3.9,3.74-10.77,4.4-17.1
					c0.97-9.31-0.77-18.23-9.94-19.98c-10.19-1.79-47.12-0.75-42.32-20.26c4.98-20.27,24.07-45,46.05-45.64c0.17,0,0.34,0,0.51,0
					c22.19,0.32,35.07,22.42,36.01,42.34c-11.21,2.09-22.42,4.17-33.64,6.26c0.41-2.06,0.66-4.14,0.82-5.97
					c0.66-7.4,2.61-28.45-4.05-30.35c-1.91-0.55-6.32,4.89-9.64,12.91c-2.72,6.57-4.41,12.12-5.01,16.52
					c-1.38,10.15,3.35,14.09,12.99,14.34c13.88,0.37,46.1,1.61,44.52,22.2C951.47,620.06,922.29,644.71,901.47,645.45z"/>
				<path d="M1054.72,584.35c1.17,26.19-16.27,56.68-44.62,56.99c-1.21,0.01-2.47-0.2-3.69-0.2c-27.88-1.89-41.96-33.36-41.48-57.64
					c0.05-2.47,0.31-5.11,0.56-7.73c2.87-22.69,18.4-49.83,44.14-49.87c1.02,0,2.04,0.16,3.06,0.16
					c24.56,2.46,38.74,28.44,41.45,50.56C1054.43,579.07,1054.58,581.7,1054.72,584.35z M1019.7,579.84
					c-1.91-11.84-3.17-36.26-15.13-43.53c0,0,0,0-0.17,0c-8.19,6.79-6.6,22.16-6.31,31.86c0.12,3.94,0.44,8.28,0.77,12.86
					c1.7,13.02,8.86,48.3,16.25,47.94c5.57-0.27,6.53-27.07,6.06-35.96C1020.93,588.75,1020.36,584.23,1019.7,579.84z"/>
				<path d="M1162.97,572.41c1.36,4.81,2.23,7.8,2.23,7.8c8.86,27.66,0.8,68.94-34.39,69.25c-1.44,0.01-2.71,0-4.21-0.21
					c-31.47-3.09-44.88-43.65-49.57-69.54c-4.16,0.12-6.23,0.18-10.39,0.3c-0.49-4.73-1.09-9.06-1.62-12.8
					c-1.43-10.06-2.93-20.18-5-30.17c9.4,0.38,18.8,0.78,28.2,1.18c0.42,9.29,1.4,18.76,3.03,27.29
					c3.36,17.52,17.71,69.33,31.28,68.8c8.92-0.34,5.44-33.76,3.09-43.71c-0.8-3.38-1.9-6.57-2.66-9.89c0,0-0.08-0.35-0.28-1.22
					c-4.15-18.18-9.49-36.15-14.53-54.13c14.46-0.62,28.93-1.2,43.4-1.75C1154.58,540.11,1158.39,556.27,1162.97,572.41z"/>
				<path d="M1305.27,669.31c-2.81-0.01-5.87-0.63-9.22-1.46c-31.96-9.03-58.2-39.45-78.94-63.56c-0.54-0.37-1.14-0.93-1.73-1.49
					c5.71,14.4,12.08,28.52,19.47,42.14c-11.88,0.15-23.75,0.31-35.63,0.48c-4.82-17.4-9.41-34.92-14.8-52.13
					c-5-15.96-10.75-31.72-16.6-47.42c3.76-0.33,5.64-0.5,9.4-0.83c5.01,7.99,7.6,12.04,12.94,20.3c-0.27-0.85-0.59-1.73-0.82-2.55
					c-6.26-22.31,0.18-51.83,29.14-51.73c17.86,0.06,32.65,13.89,39.26,29.93c0.65,1.49,0.96,2.95,1.57,4.47
					c8.7,21.76,1.36,54.25-22.91,62.74c11.44,12.94,28.57,35.6,45.24,37.45c1.92,0.21,2.86-1.67,1.63-4.39
					c-4.6-10.23-14.63-18.85-23.09-26.66c9.42-7.01,18.89-13.95,28.41-20.83c11.3,12.03,22.7,25.13,29.32,40.21
					C1323.58,646.88,1324.88,669.39,1305.27,669.31z M1207.26,529.82c-0.19,0-0.26-0.05-0.38-0.01c-7.33,2.4-6.02,19.63-4.82,29.7
					c1.06,5.41,2.41,10.56,3.95,15.07c3.56,10.41,8.26,18.18,12.22,18.63c0,0,0.29,0.05,0.4,0.01c6.74-2.52,4.67-20.94,3.21-31.24
					c-1.13-5.28-2.56-10.34-4.17-14.87C1214.09,537.04,1210.94,530.2,1207.26,529.82z"/>
				<path d="M1336.8,648.22c-8.56-30.02-15.8-60.51-26.98-89.71c9.54,0.76,19.09,1.53,28.63,2.29
					c14.52,29.99,33.16,57.96,48.98,87.27C1370.55,648.11,1353.68,648.16,1336.8,648.22z M1338.04,548.15
					c0.32,0.83,0.69,1.55,1.21,2.25c0,0-8.98-1.25-19.22-1.5c-5.85-0.14-12.34,0.04-17.87,0.92c-0.16-0.85-0.67-1.9-1.2-3.25
					c-3.84-9.73-7.91-20.38-13.62-29.58c0,0,2.8,0.85,16.22,1.07c9.87,0.16,19.75-0.09,29.63-0.35
					C1333.12,527.86,1334.58,539.2,1338.04,548.15z"/>
				<path d="M1458.53,650.14c-0.43,0-0.66-0.01-0.96-0.2c-33.76-2.03-59.76-25.37-78.24-51.92c15.82,2.11,31.63,4.2,47.45,6.28
					c5.58,11.06,15.45,34.64,27.15,36.61c3.17,0.53,5.01-5.66,4.78-10.38c-0.17-3.57-1.64-9.95-4.29-15.97
					c-4.3-9.75-12.31-17.97-23.18-19.92c-19.92-3.47-53.76-1.46-63.63-22.37c-9.84-20.85,4.6-47.5,29.47-46.86
					c0.22,0.01,0.44,0.01,0.67,0.01c28.35,1.7,57.21,22.09,70.63,46.9c-13.13,1.64-26.25,3.32-39.37,5.04
					c-0.72-2.1-1.66-4.24-2.54-6.14c-4.38-9.4-12.52-30.75-23.13-32.43c-3.08-0.49-5.91,5.1-5.01,13.5
					c0.73,6.85,2.28,12.66,4.27,17.18c4.37,9.94,14.27,15.12,24.86,15.3c19.76,0.32,56.97,2.53,66.14,23.74
					C1501.78,627.51,1476.52,650.12,1458.53,650.14z"/>
			</g>
			<g>
				<path class="st3" d="M769.16,449.21c0.22-1.12,0.41-2.09,0.62-3.21c2.31-12.6,3.47-24.67,4.03-37.56
					c-7.01,1.55-10.55,2.32-17.71,3.87c-1.77,10.54-4.29,20.99-6.79,31.37c-13.93-0.54-27.86-1.1-41.79-1.65
					c25.16-33.32,40.59-76.4,51.6-116.31c7.37,1.74,11.07,2.62,18.46,4.37c2.61,22.04,5.63,44.05,12.04,65.37
					c0,0,7.87-1.88,10.38-2.69c2.79,17.17,6.43,34.14,9.7,51.22C796.19,445.76,782.68,447.5,769.16,449.21z M769.42,351.6
					c-4.53,16.89-7.94,34.11-11.59,51.2c6.47-1.43,9.67-2.14,16.02-3.58C773.46,383.19,772.61,367.35,769.42,351.6z"/>
				<path class="st3" d="M855.88,442.78c-9.02-0.06-18.4,0.34-27.53,0.42c3.62-40.69-1.01-82.55-3.65-123.17
					c12.21-0.24,24.42-0.42,36.63-0.87c-1.98,33.13-3.67,66.21-7.64,99.18c2.37,0.19,4.75,0.21,6.96,0.23
					c6.64,0.06,13.28-0.38,21.77-1.63c-0.52,5.1-1.28,11.43-1.62,16.84c-0.28,4.45-0.23,8.23,0.55,10.74
					C873.47,443.37,864.9,442.84,855.88,442.78z"/>
				<path class="st3" d="M890.85,444.56c5.55-27.97,9.59-55.87,11.07-84.37c8.13,0.69,12.19,1.03,20.29,1.72
					c0.76,27.4,4.55,54.63,5.72,82.02C915.57,444.15,903.21,444.36,890.85,444.56z M925.94,348.04c-0.01,0.94,0.01,1.71,0.17,2.47
					c0,0-6.1-1.15-13.57-1.16c-4.27-0.01-9.15,0.36-13.58,1.48c0.14-0.94,0.15-2.09,0.12-3.61c-0.21-11.7-1.2-23.88-3.68-35.43
					c0,0,2.02,1.04,12.15,1.05c5.06,0,12.27-0.2,22.22-1.03C927.32,323.6,926.01,336.16,925.94,348.04z"/>
				<path class="st3" d="M981.3,441.97c-15.79,0.14-31.14-12.71-36.05-26.22c-3.65-10.05-6-21.28-5.86-32.55
					c0.1-8.01,1.08-15.7,2.88-22.92c3.7-16.25,17.73-36.3,35.49-36.35c24.44-0.07,32.72,34.41,36.71,53.43
					c-9.65,0.55-19.31,1.1-28.96,1.63c-0.8-10.29-1.02-40.43-8.95-43.11c-2.06-0.7-6.3,10.31-7.88,21.81
					c-0.94,6.85-1.96,14.42-1.96,24.3c0,11.63,1.49,23.26,3.88,34.62c2.12,10.06,4.86,14.99,7.47,14.99c3.07,0,5.66-7.23,5.64-22.8
					c0-3.01-0.16-6.56-0.31-10.31c10.39,1.2,20.79,2.37,31.18,3.53C1010.59,419.79,1003.24,441.78,981.3,441.97z"/>
				<path class="st3" d="M1024.59,444.72c2.77-28.17,6.3-56.18,7.83-84.47c8.09,0.65,12.14,0.97,20.26,1.61
					c0.58,27.43,5.23,54.8,8.82,81.94C1049.2,444.12,1036.9,444.43,1024.59,444.72z M1056.59,347.99c-0.02,0.94-0.02,1.71,0.13,2.47
					c0,0-6.1-1.12-13.57-1.11c-4.27,0.01-9.15,0.4-13.57,1.54c0.16-0.95,0.18-2.1,0.18-3.61c-0.01-11.69-0.61-23.85-2.64-35.47
					c0,0,1.98,1.04,12.1,1.03c5.06,0,12.27-0.21,22.27-1.05C1058.57,323.5,1056.87,336.1,1056.59,347.99z"/>
				<path class="st3" d="M1129.8,449.7c-0.14-1.1-0.25-2.05-0.38-3.16c-1.48-12.29-2.88-24.6-4.19-36.92
					c-6.5,1.79-9.77,2.71-16.15,4.41c-0.44,10.1-0.42,20.53,0.55,30.6c-12.46-0.28-24.92-0.57-37.37-0.88
					c13.36-38.03,23.61-77.36,32.97-116.54c7.17,1.66,10.85,2.39,18.18,3.92c3.03,22.22,6.98,44.18,15.56,65.02
					c0,0,7.54-2.23,9.94-3.15c4.89,17.59,10.49,34.63,19.06,50.8C1155.24,445.79,1142.52,447.75,1129.8,449.7z M1116.02,353.33
					c-3.61,16.9-5.24,34.2-6.64,51.39c5.8-1.59,8.81-2.48,14.73-4.16C1122,384.66,1119.5,368.99,1116.02,353.33z"/>
				<path class="st3" d="M542.92,656.82c-3.4,0.12-6.64-0.66-9.55-1.9c-19.58-8.6-17.04-38.11-15.45-54.74
					c-3.41,1.85-5.12,2.77-8.53,4.62c-5.15,14.23-9.47,28.69-14.06,43.1c-15.4,0.45-30.8,0.9-46.21,1.34
					c13.76-26.05,26.52-52.87,38.06-79.75c4.54-10.56,9.08-21.34,12.53-32.4c9.31-0.91,18.62-1.82,27.93-2.74
					c-7.14,13.09-14.17,26.25-20.2,39.9c-3.88,8.78-6.84,16.52-8.51,22.31c19.12-8.6,35.56-24.01,44.41-42.91
					c3.74-8,5.57-19.98,3.2-28.78c16.65-2,33.3-4,49.95-6c0.49,4.52,3.98,15.48-0.62,27.05c-4.98,12.51-16.41,19.92-27.7,27.03
					c-10.29,5.58-20.58,11.15-30.87,16.71c-1.26,9.21-4.35,32.58,3.67,34.73c1.22,0.33,4.07-2.25,6.21-6.92
					c1.81-3.95,3.71-10.02,5.15-17.95c17.02-6.57,34.02-13.17,51.02-19.8c-1.37,11.36-3.42,22.23-8.13,32.57
					C586.13,632.29,566.19,655.97,542.92,656.82z"/>
				<path class="st3" d="M664.71,654.37c0.56-1.37,1.04-2.55,1.58-3.91c5.68-14.15,11.15-28.46,16.15-42.91
					c-9.24,2.03-13.9,3.05-23.27,5.09c-6.12,11.79-11.92,23.54-17.37,35.66c-16.55-0.2-33.1-0.39-49.65-0.56
					c33.99-37.48,69.25-76.03,96.77-118.62c8.88,1.21,13.28,1.81,22.02,3.02c-1.76,20.34-5.49,40.35-4.52,60.87
					c0,0,10.41-2.38,13.79-3.35c-2.18,19.04-3.22,38-3.51,57.16C699.38,649.37,682.05,651.89,664.71,654.37z M695.52,551.45
					c-11.33,16.35-21.2,33.72-31.01,51c8.48-1.86,12.7-2.79,21.07-4.64C690.04,582.56,694.33,567.36,695.52,551.45z"/>
				<path class="st3" d="M819.46,555.14c-0.37,0-0.56,0.01-0.93,0.02c-3.69,30.22-7.08,60.48-11.04,90.67
					c-16.02,0.12-32.03,0.39-48.05,0.61c15.08-32.9,30.22-65.96,42-100.22c-1.48,0.02-2.96,0.05-4.63,0.07
					c-11.15,0.19-22.25,1.78-33.3,3.23c1.89-5.19,4.14-11.57,5.54-17.06c1.15-4.53,1.73-8.37,1.4-10.76c8.82,1,17.02,1.21,25.42,1.1
					c8.39-0.11,17.16-0.53,27.08-0.95c-0.46,2.22-1.65,7.76-1.35,8.11c2.02,2.28,26.17-3.04,39.16-5.31
					c-1,3.95-1.85,7.92-2.59,12.09c-1.19,6.74-2.19,13.95-3.04,21.13C843.37,556.02,831.33,554.98,819.46,555.14z"/>
				<path class="st3" d="M901.47,645.45c-0.4,0.01-0.62,0-0.8-0.2c-29.91-0.19-40.21-28.21-40.98-53.56
					c12.76,1.61,25.53,3.24,38.29,4.88c-0.9,9.36-3.45,36.18,4.38,38.59c2.32,0.72,7.67-6.27,10.02-11.61
					c1.72-3.9,3.74-10.77,4.4-17.1c0.97-9.31-0.77-18.23-9.94-19.98c-10.19-1.79-47.12-0.75-42.32-20.26
					c4.98-20.27,24.07-45,46.05-45.64c0.17,0,0.34,0,0.51,0c22.19,0.32,35.07,22.42,36.01,42.34c-11.21,2.09-22.42,4.17-33.64,6.26
					c0.41-2.06,0.66-4.14,0.82-5.97c0.66-7.4,2.61-28.45-4.05-30.35c-1.91-0.55-6.32,4.89-9.64,12.91
					c-2.72,6.57-4.41,12.12-5.01,16.52c-1.38,10.15,3.35,14.09,12.99,14.34c13.88,0.37,46.1,1.61,44.52,22.2
					C951.47,620.06,922.29,644.71,901.47,645.45z"/>
				<path class="st3" d="M1054.72,584.35c1.17,26.19-16.27,56.68-44.62,56.99c-1.21,0.01-2.47-0.2-3.69-0.2
					c-27.88-1.89-41.96-33.36-41.48-57.64c0.05-2.47,0.31-5.11,0.56-7.73c2.87-22.69,18.4-49.83,44.14-49.87
					c1.02,0,2.04,0.16,3.06,0.16c24.56,2.46,38.74,28.44,41.45,50.56C1054.43,579.07,1054.58,581.7,1054.72,584.35z M1019.7,579.84
					c-1.91-11.84-3.17-36.26-15.13-43.53c0,0,0,0-0.17,0c-8.19,6.79-6.6,22.16-6.31,31.86c0.12,3.94,0.44,8.28,0.77,12.86
					c1.7,13.02,8.86,48.3,16.25,47.94c5.57-0.27,6.53-27.07,6.06-35.96C1020.93,588.75,1020.36,584.23,1019.7,579.84z"/>
				<path class="st3" d="M1162.97,572.41c1.36,4.81,2.23,7.8,2.23,7.8c8.86,27.66,0.8,68.94-34.39,69.25
					c-1.44,0.01-2.71,0-4.21-0.21c-31.47-3.09-44.88-43.65-49.57-69.54c-4.16,0.12-6.23,0.18-10.39,0.3
					c-0.49-4.73-1.09-9.06-1.62-12.8c-1.43-10.06-2.93-20.18-5-30.17c9.4,0.38,18.8,0.78,28.2,1.18c0.42,9.29,1.4,18.76,3.03,27.29
					c3.36,17.52,17.71,69.33,31.28,68.8c8.92-0.34,5.44-33.76,3.09-43.71c-0.8-3.38-1.9-6.57-2.66-9.89c0,0-0.08-0.35-0.28-1.22
					c-4.15-18.18-9.49-36.15-14.53-54.13c14.46-0.62,28.93-1.2,43.4-1.75C1154.58,540.11,1158.39,556.27,1162.97,572.41z"/>
				<path class="st3" d="M1305.27,669.31c-2.81-0.01-5.87-0.63-9.22-1.46c-31.96-9.03-58.2-39.45-78.94-63.56
					c-0.54-0.37-1.14-0.93-1.73-1.49c5.71,14.4,12.08,28.52,19.47,42.14c-11.88,0.15-23.75,0.31-35.63,0.48
					c-4.82-17.4-9.41-34.92-14.8-52.13c-5-15.96-10.75-31.72-16.6-47.42c3.76-0.33,5.64-0.5,9.4-0.83
					c5.01,7.99,7.6,12.04,12.94,20.3c-0.27-0.85-0.59-1.73-0.82-2.55c-6.26-22.31,0.18-51.83,29.14-51.73
					c17.86,0.06,32.65,13.89,39.26,29.93c0.65,1.49,0.96,2.95,1.57,4.47c8.7,21.76,1.36,54.25-22.91,62.74
					c11.44,12.94,28.57,35.6,45.24,37.45c1.92,0.21,2.86-1.67,1.63-4.39c-4.6-10.23-14.63-18.85-23.09-26.66
					c9.42-7.01,18.89-13.95,28.41-20.83c11.3,12.03,22.7,25.13,29.32,40.21C1323.58,646.88,1324.88,669.39,1305.27,669.31z
					 M1207.26,529.82c-0.19,0-0.26-0.05-0.38-0.01c-7.33,2.4-6.02,19.63-4.82,29.7c1.06,5.41,2.41,10.56,3.95,15.07
					c3.56,10.41,8.26,18.18,12.22,18.63c0,0,0.29,0.05,0.4,0.01c6.74-2.52,4.67-20.94,3.21-31.24c-1.13-5.28-2.56-10.34-4.17-14.87
					C1214.09,537.04,1210.94,530.2,1207.26,529.82z"/>
				<path class="st3" d="M1336.8,648.22c-8.56-30.02-15.8-60.51-26.98-89.71c9.54,0.76,19.09,1.53,28.63,2.29
					c14.52,29.99,33.16,57.96,48.98,87.27C1370.55,648.11,1353.68,648.16,1336.8,648.22z M1338.04,548.15
					c0.32,0.83,0.69,1.55,1.21,2.25c0,0-8.98-1.25-19.22-1.5c-5.85-0.14-12.34,0.04-17.87,0.92c-0.16-0.85-0.67-1.9-1.2-3.25
					c-3.84-9.73-7.91-20.38-13.62-29.58c0,0,2.8,0.85,16.22,1.07c9.87,0.16,19.75-0.09,29.63-0.35
					C1333.12,527.86,1334.58,539.2,1338.04,548.15z"/>
				<path class="st3" d="M1458.53,650.14c-0.43,0-0.66-0.01-0.96-0.2c-33.76-2.03-59.76-25.37-78.24-51.92
					c15.82,2.11,31.63,4.2,47.45,6.28c5.58,11.06,15.45,34.64,27.15,36.61c3.17,0.53,5.01-5.66,4.78-10.38
					c-0.17-3.57-1.64-9.95-4.29-15.97c-4.3-9.75-12.31-17.97-23.18-19.92c-19.92-3.47-53.76-1.46-63.63-22.37
					c-9.84-20.85,4.6-47.5,29.47-46.86c0.22,0.01,0.44,0.01,0.67,0.01c28.35,1.7,57.21,22.09,70.63,46.9
					c-13.13,1.64-26.25,3.32-39.37,5.04c-0.72-2.1-1.66-4.24-2.54-6.14c-4.38-9.4-12.52-30.75-23.13-32.43
					c-3.08-0.49-5.91,5.1-5.01,13.5c0.73,6.85,2.28,12.66,4.27,17.18c4.37,9.94,14.27,15.12,24.86,15.3
					c19.76,0.32,56.97,2.53,66.14,23.74C1501.78,627.51,1476.52,650.12,1458.53,650.14z"/>
			</g>
			<g>
				<path class="st4" d="M769.16,449.21c0.22-1.12,0.41-2.09,0.62-3.21c2.31-12.6,3.47-24.67,4.03-37.56
					c-7.01,1.55-10.55,2.32-17.71,3.87c-1.77,10.54-4.29,20.99-6.79,31.37c-13.93-0.54-27.86-1.1-41.79-1.65
					c25.16-33.32,40.59-76.4,51.6-116.31c7.37,1.74,11.07,2.62,18.46,4.37c2.61,22.04,5.63,44.05,12.04,65.37
					c0,0,7.87-1.88,10.38-2.69c2.79,17.17,6.43,34.14,9.7,51.22C796.19,445.76,782.68,447.5,769.16,449.21z M769.42,351.6
					c-4.53,16.89-7.94,34.11-11.59,51.2c6.47-1.43,9.67-2.14,16.02-3.58C773.46,383.19,772.61,367.35,769.42,351.6z"/>
				<path class="st4" d="M855.88,442.78c-9.02-0.06-18.4,0.34-27.53,0.42c3.62-40.69-1.01-82.55-3.65-123.17
					c12.21-0.24,24.42-0.42,36.63-0.87c-1.98,33.13-3.67,66.21-7.64,99.18c2.37,0.19,4.75,0.21,6.96,0.23
					c6.64,0.06,13.28-0.38,21.77-1.63c-0.52,5.1-1.28,11.43-1.62,16.84c-0.28,4.45-0.23,8.23,0.55,10.74
					C873.47,443.37,864.9,442.84,855.88,442.78z"/>
				<path class="st4" d="M890.85,444.56c5.55-27.97,9.59-55.87,11.07-84.37c8.13,0.69,12.19,1.03,20.29,1.72
					c0.76,27.4,4.55,54.63,5.72,82.02C915.57,444.15,903.21,444.36,890.85,444.56z M925.94,348.04c-0.01,0.94,0.01,1.71,0.17,2.47
					c0,0-6.1-1.15-13.57-1.16c-4.27-0.01-9.15,0.36-13.58,1.48c0.14-0.94,0.15-2.09,0.12-3.61c-0.21-11.7-1.2-23.88-3.68-35.43
					c0,0,2.02,1.04,12.15,1.05c5.06,0,12.27-0.2,22.22-1.03C927.32,323.6,926.01,336.16,925.94,348.04z"/>
				<path class="st4" d="M981.3,441.97c-15.79,0.14-31.14-12.71-36.05-26.22c-3.65-10.05-6-21.28-5.86-32.55
					c0.1-8.01,1.08-15.7,2.88-22.92c3.7-16.25,17.73-36.3,35.49-36.35c24.44-0.07,32.72,34.41,36.71,53.43
					c-9.65,0.55-19.31,1.1-28.96,1.63c-0.8-10.29-1.02-40.43-8.95-43.11c-2.06-0.7-6.3,10.31-7.88,21.81
					c-0.94,6.85-1.96,14.42-1.96,24.3c0,11.63,1.49,23.26,3.88,34.62c2.12,10.06,4.86,14.99,7.47,14.99c3.07,0,5.66-7.23,5.64-22.8
					c0-3.01-0.16-6.56-0.31-10.31c10.39,1.2,20.79,2.37,31.18,3.53C1010.59,419.79,1003.24,441.78,981.3,441.97z"/>
				<path class="st4" d="M1024.59,444.72c2.77-28.17,6.3-56.18,7.83-84.47c8.09,0.65,12.14,0.97,20.26,1.61
					c0.58,27.43,5.23,54.8,8.82,81.94C1049.2,444.12,1036.9,444.43,1024.59,444.72z M1056.59,347.99c-0.02,0.94-0.02,1.71,0.13,2.47
					c0,0-6.1-1.12-13.57-1.11c-4.27,0.01-9.15,0.4-13.57,1.54c0.16-0.95,0.18-2.1,0.18-3.61c-0.01-11.69-0.61-23.85-2.64-35.47
					c0,0,1.98,1.04,12.1,1.03c5.06,0,12.27-0.21,22.27-1.05C1058.57,323.5,1056.87,336.1,1056.59,347.99z"/>
				<path class="st4" d="M1129.8,449.7c-0.14-1.1-0.25-2.05-0.38-3.16c-1.48-12.29-2.88-24.6-4.19-36.92
					c-6.5,1.79-9.77,2.71-16.15,4.41c-0.44,10.1-0.42,20.53,0.55,30.6c-12.46-0.28-24.92-0.57-37.37-0.88
					c13.36-38.03,23.61-77.36,32.97-116.54c7.17,1.66,10.85,2.39,18.18,3.92c3.03,22.22,6.98,44.18,15.56,65.02
					c0,0,7.54-2.23,9.94-3.15c4.89,17.59,10.49,34.63,19.06,50.8C1155.24,445.79,1142.52,447.75,1129.8,449.7z M1116.02,353.33
					c-3.61,16.9-5.24,34.2-6.64,51.39c5.8-1.59,8.81-2.48,14.73-4.16C1122,384.66,1119.5,368.99,1116.02,353.33z"/>
				<path class="st4" d="M542.92,656.82c-3.4,0.12-6.64-0.66-9.55-1.9c-19.58-8.6-17.04-38.11-15.45-54.74
					c-3.41,1.85-5.12,2.77-8.53,4.62c-5.15,14.23-9.47,28.69-14.06,43.1c-15.4,0.45-30.8,0.9-46.21,1.34
					c13.76-26.05,26.52-52.87,38.06-79.75c4.54-10.56,9.08-21.34,12.53-32.4c9.31-0.91,18.62-1.82,27.93-2.74
					c-7.14,13.09-14.17,26.25-20.2,39.9c-3.88,8.78-6.84,16.52-8.51,22.31c19.12-8.6,35.56-24.01,44.41-42.91
					c3.74-8,5.57-19.98,3.2-28.78c16.65-2,33.3-4,49.95-6c0.49,4.52,3.98,15.48-0.62,27.05c-4.98,12.51-16.41,19.92-27.7,27.03
					c-10.29,5.58-20.58,11.15-30.87,16.71c-1.26,9.21-4.35,32.58,3.67,34.73c1.22,0.33,4.07-2.25,6.21-6.92
					c1.81-3.95,3.71-10.02,5.15-17.95c17.02-6.57,34.02-13.17,51.02-19.8c-1.37,11.36-3.42,22.23-8.13,32.57
					C586.13,632.29,566.19,655.97,542.92,656.82z"/>
				<path class="st4" d="M664.71,654.37c0.56-1.37,1.04-2.55,1.58-3.91c5.68-14.15,11.15-28.46,16.15-42.91
					c-9.24,2.03-13.9,3.05-23.27,5.09c-6.12,11.79-11.92,23.54-17.37,35.66c-16.55-0.2-33.1-0.39-49.65-0.56
					c33.99-37.48,69.25-76.03,96.77-118.62c8.88,1.21,13.28,1.81,22.02,3.02c-1.76,20.34-5.49,40.35-4.52,60.87
					c0,0,10.41-2.38,13.79-3.35c-2.18,19.04-3.22,38-3.51,57.16C699.38,649.37,682.05,651.89,664.71,654.37z M695.52,551.45
					c-11.33,16.35-21.2,33.72-31.01,51c8.48-1.86,12.7-2.79,21.07-4.64C690.04,582.56,694.33,567.36,695.52,551.45z"/>
				<path class="st4" d="M819.46,555.14c-0.37,0-0.56,0.01-0.93,0.02c-3.69,30.22-7.08,60.48-11.04,90.67
					c-16.02,0.12-32.03,0.39-48.05,0.61c15.08-32.9,30.22-65.96,42-100.22c-1.48,0.02-2.96,0.05-4.63,0.07
					c-11.15,0.19-22.25,1.78-33.3,3.23c1.89-5.19,4.14-11.57,5.54-17.06c1.15-4.53,1.73-8.37,1.4-10.76c8.82,1,17.02,1.21,25.42,1.1
					c8.39-0.11,17.16-0.53,27.08-0.95c-0.46,2.22-1.65,7.76-1.35,8.11c2.02,2.28,26.17-3.04,39.16-5.31
					c-1,3.95-1.85,7.92-2.59,12.09c-1.19,6.74-2.19,13.95-3.04,21.13C843.37,556.02,831.33,554.98,819.46,555.14z"/>
				<path class="st4" d="M901.47,645.45c-0.4,0.01-0.62,0-0.8-0.2c-29.91-0.19-40.21-28.21-40.98-53.56
					c12.76,1.61,25.53,3.24,38.29,4.88c-0.9,9.36-3.45,36.18,4.38,38.59c2.32,0.72,7.67-6.27,10.02-11.61
					c1.72-3.9,3.74-10.77,4.4-17.1c0.97-9.31-0.77-18.23-9.94-19.98c-10.19-1.79-47.12-0.75-42.32-20.26
					c4.98-20.27,24.07-45,46.05-45.64c0.17,0,0.34,0,0.51,0c22.19,0.32,35.07,22.42,36.01,42.34c-11.21,2.09-22.42,4.17-33.64,6.26
					c0.41-2.06,0.66-4.14,0.82-5.97c0.66-7.4,2.61-28.45-4.05-30.35c-1.91-0.55-6.32,4.89-9.64,12.91
					c-2.72,6.57-4.41,12.12-5.01,16.52c-1.38,10.15,3.35,14.09,12.99,14.34c13.88,0.37,46.1,1.61,44.52,22.2
					C951.47,620.06,922.29,644.71,901.47,645.45z"/>
				<path class="st4" d="M1054.72,584.35c1.17,26.19-16.27,56.68-44.62,56.99c-1.21,0.01-2.47-0.2-3.69-0.2
					c-27.88-1.89-41.96-33.36-41.48-57.64c0.05-2.47,0.31-5.11,0.56-7.73c2.87-22.69,18.4-49.83,44.14-49.87
					c1.02,0,2.04,0.16,3.06,0.16c24.56,2.46,38.74,28.44,41.45,50.56C1054.43,579.07,1054.58,581.7,1054.72,584.35z M1019.7,579.84
					c-1.91-11.84-3.17-36.26-15.13-43.53c0,0,0,0-0.17,0c-8.19,6.79-6.6,22.16-6.31,31.86c0.12,3.94,0.44,8.28,0.77,12.86
					c1.7,13.02,8.86,48.3,16.25,47.94c5.57-0.27,6.53-27.07,6.06-35.96C1020.93,588.75,1020.36,584.23,1019.7,579.84z"/>
				<path class="st4" d="M1162.97,572.41c1.36,4.81,2.23,7.8,2.23,7.8c8.86,27.66,0.8,68.94-34.39,69.25
					c-1.44,0.01-2.71,0-4.21-0.21c-31.47-3.09-44.88-43.65-49.57-69.54c-4.16,0.12-6.23,0.18-10.39,0.3
					c-0.49-4.73-1.09-9.06-1.62-12.8c-1.43-10.06-2.93-20.18-5-30.17c9.4,0.38,18.8,0.78,28.2,1.18c0.42,9.29,1.4,18.76,3.03,27.29
					c3.36,17.52,17.71,69.33,31.28,68.8c8.92-0.34,5.44-33.76,3.09-43.71c-0.8-3.38-1.9-6.57-2.66-9.89c0,0-0.08-0.35-0.28-1.22
					c-4.15-18.18-9.49-36.15-14.53-54.13c14.46-0.62,28.93-1.2,43.4-1.75C1154.58,540.11,1158.39,556.27,1162.97,572.41z"/>
				<path class="st4" d="M1305.27,669.31c-2.81-0.01-5.87-0.63-9.22-1.46c-31.96-9.03-58.2-39.45-78.94-63.56
					c-0.54-0.37-1.14-0.93-1.73-1.49c5.71,14.4,12.08,28.52,19.47,42.14c-11.88,0.15-23.75,0.31-35.63,0.48
					c-4.82-17.4-9.41-34.92-14.8-52.13c-5-15.96-10.75-31.72-16.6-47.42c3.76-0.33,5.64-0.5,9.4-0.83
					c5.01,7.99,7.6,12.04,12.94,20.3c-0.27-0.85-0.59-1.73-0.82-2.55c-6.26-22.31,0.18-51.83,29.14-51.73
					c17.86,0.06,32.65,13.89,39.26,29.93c0.65,1.49,0.96,2.95,1.57,4.47c8.7,21.76,1.36,54.25-22.91,62.74
					c11.44,12.94,28.57,35.6,45.24,37.45c1.92,0.21,2.86-1.67,1.63-4.39c-4.6-10.23-14.63-18.85-23.09-26.66
					c9.42-7.01,18.89-13.95,28.41-20.83c11.3,12.03,22.7,25.13,29.32,40.21C1323.58,646.88,1324.88,669.39,1305.27,669.31z
					 M1207.26,529.82c-0.19,0-0.26-0.05-0.38-0.01c-7.33,2.4-6.02,19.63-4.82,29.7c1.06,5.41,2.41,10.56,3.95,15.07
					c3.56,10.41,8.26,18.18,12.22,18.63c0,0,0.29,0.05,0.4,0.01c6.74-2.52,4.67-20.94,3.21-31.24c-1.13-5.28-2.56-10.34-4.17-14.87
					C1214.09,537.04,1210.94,530.2,1207.26,529.82z"/>
				<path class="st4" d="M1336.8,648.22c-8.56-30.02-15.8-60.51-26.98-89.71c9.54,0.76,19.09,1.53,28.63,2.29
					c14.52,29.99,33.16,57.96,48.98,87.27C1370.55,648.11,1353.68,648.16,1336.8,648.22z M1338.04,548.15
					c0.32,0.83,0.69,1.55,1.21,2.25c0,0-8.98-1.25-19.22-1.5c-5.85-0.14-12.34,0.04-17.87,0.92c-0.16-0.85-0.67-1.9-1.2-3.25
					c-3.84-9.73-7.91-20.38-13.62-29.58c0,0,2.8,0.85,16.22,1.07c9.87,0.16,19.75-0.09,29.63-0.35
					C1333.12,527.86,1334.58,539.2,1338.04,548.15z"/>
				<path class="st4" d="M1458.53,650.14c-0.43,0-0.66-0.01-0.96-0.2c-33.76-2.03-59.76-25.37-78.24-51.92
					c15.82,2.11,31.63,4.2,47.45,6.28c5.58,11.06,15.45,34.64,27.15,36.61c3.17,0.53,5.01-5.66,4.78-10.38
					c-0.17-3.57-1.64-9.95-4.29-15.97c-4.3-9.75-12.31-17.97-23.18-19.92c-19.92-3.47-53.76-1.46-63.63-22.37
					c-9.84-20.85,4.6-47.5,29.47-46.86c0.22,0.01,0.44,0.01,0.67,0.01c28.35,1.7,57.21,22.09,70.63,46.9
					c-13.13,1.64-26.25,3.32-39.37,5.04c-0.72-2.1-1.66-4.24-2.54-6.14c-4.38-9.4-12.52-30.75-23.13-32.43
					c-3.08-0.49-5.91,5.1-5.01,13.5c0.73,6.85,2.28,12.66,4.27,17.18c4.37,9.94,14.27,15.12,24.86,15.3
					c19.76,0.32,56.97,2.53,66.14,23.74C1501.78,627.51,1476.52,650.12,1458.53,650.14z"/>
			</g>
			<g>
				<path class="st5" d="M769.16,449.21c0.22-1.12,0.41-2.09,0.62-3.21c2.31-12.6,3.47-24.67,4.03-37.56
					c-7.01,1.55-10.55,2.32-17.71,3.87c-1.77,10.54-4.29,20.99-6.79,31.37c-13.93-0.54-27.86-1.1-41.79-1.65
					c25.16-33.32,40.59-76.4,51.6-116.31c7.37,1.74,11.07,2.62,18.46,4.37c2.61,22.04,5.63,44.05,12.04,65.37
					c0,0,7.87-1.88,10.38-2.69c2.79,17.17,6.43,34.14,9.7,51.22C796.19,445.76,782.68,447.5,769.16,449.21z M769.42,351.6
					c-4.53,16.89-7.94,34.11-11.59,51.2c6.47-1.43,9.67-2.14,16.02-3.58C773.46,383.19,772.61,367.35,769.42,351.6z"/>
				<path class="st5" d="M855.88,442.78c-9.02-0.06-18.4,0.34-27.53,0.42c3.62-40.69-1.01-82.55-3.65-123.17
					c12.21-0.24,24.42-0.42,36.63-0.87c-1.98,33.13-3.67,66.21-7.64,99.18c2.37,0.19,4.75,0.21,6.96,0.23
					c6.64,0.06,13.28-0.38,21.77-1.63c-0.52,5.1-1.28,11.43-1.62,16.84c-0.28,4.45-0.23,8.23,0.55,10.74
					C873.47,443.37,864.9,442.84,855.88,442.78z"/>
				<path class="st5" d="M890.85,444.56c5.55-27.97,9.59-55.87,11.07-84.37c8.13,0.69,12.19,1.03,20.29,1.72
					c0.76,27.4,4.55,54.63,5.72,82.02C915.57,444.15,903.21,444.36,890.85,444.56z M925.94,348.04c-0.01,0.94,0.01,1.71,0.17,2.47
					c0,0-6.1-1.15-13.57-1.16c-4.27-0.01-9.15,0.36-13.58,1.48c0.14-0.94,0.15-2.09,0.12-3.61c-0.21-11.7-1.2-23.88-3.68-35.43
					c0,0,2.02,1.04,12.15,1.05c5.06,0,12.27-0.2,22.22-1.03C927.32,323.6,926.01,336.16,925.94,348.04z"/>
				<path class="st5" d="M981.3,441.97c-15.79,0.14-31.14-12.71-36.05-26.22c-3.65-10.05-6-21.28-5.86-32.55
					c0.1-8.01,1.08-15.7,2.88-22.92c3.7-16.25,17.73-36.3,35.49-36.35c24.44-0.07,32.72,34.41,36.71,53.43
					c-9.65,0.55-19.31,1.1-28.96,1.63c-0.8-10.29-1.02-40.43-8.95-43.11c-2.06-0.7-6.3,10.31-7.88,21.81
					c-0.94,6.85-1.96,14.42-1.96,24.3c0,11.63,1.49,23.26,3.88,34.62c2.12,10.06,4.86,14.99,7.47,14.99c3.07,0,5.66-7.23,5.64-22.8
					c0-3.01-0.16-6.56-0.31-10.31c10.39,1.2,20.79,2.37,31.18,3.53C1010.59,419.79,1003.24,441.78,981.3,441.97z"/>
				<path class="st5" d="M1024.59,444.72c2.77-28.17,6.3-56.18,7.83-84.47c8.09,0.65,12.14,0.97,20.26,1.61
					c0.58,27.43,5.23,54.8,8.82,81.94C1049.2,444.12,1036.9,444.43,1024.59,444.72z M1056.59,347.99c-0.02,0.94-0.02,1.71,0.13,2.47
					c0,0-6.1-1.12-13.57-1.11c-4.27,0.01-9.15,0.4-13.57,1.54c0.16-0.95,0.18-2.1,0.18-3.61c-0.01-11.69-0.61-23.85-2.64-35.47
					c0,0,1.98,1.04,12.1,1.03c5.06,0,12.27-0.21,22.27-1.05C1058.57,323.5,1056.87,336.1,1056.59,347.99z"/>
				<path class="st5" d="M1129.8,449.7c-0.14-1.1-0.25-2.05-0.38-3.16c-1.48-12.29-2.88-24.6-4.19-36.92
					c-6.5,1.79-9.77,2.71-16.15,4.41c-0.44,10.1-0.42,20.53,0.55,30.6c-12.46-0.28-24.92-0.57-37.37-0.88
					c13.36-38.03,23.61-77.36,32.97-116.54c7.17,1.66,10.85,2.39,18.18,3.92c3.03,22.22,6.98,44.18,15.56,65.02
					c0,0,7.54-2.23,9.94-3.15c4.89,17.59,10.49,34.63,19.06,50.8C1155.24,445.79,1142.52,447.75,1129.8,449.7z M1116.02,353.33
					c-3.61,16.9-5.24,34.2-6.64,51.39c5.8-1.59,8.81-2.48,14.73-4.16C1122,384.66,1119.5,368.99,1116.02,353.33z"/>
				<path class="st5" d="M542.92,656.82c-3.4,0.12-6.64-0.66-9.55-1.9c-19.58-8.6-17.04-38.11-15.45-54.74
					c-3.41,1.85-5.12,2.77-8.53,4.62c-5.15,14.23-9.47,28.69-14.06,43.1c-15.4,0.45-30.8,0.9-46.21,1.34
					c13.76-26.05,26.52-52.87,38.06-79.75c4.54-10.56,9.08-21.34,12.53-32.4c9.31-0.91,18.62-1.82,27.93-2.74
					c-7.14,13.09-14.17,26.25-20.2,39.9c-3.88,8.78-6.84,16.52-8.51,22.31c19.12-8.6,35.56-24.01,44.41-42.91
					c3.74-8,5.57-19.98,3.2-28.78c16.65-2,33.3-4,49.95-6c0.49,4.52,3.98,15.48-0.62,27.05c-4.98,12.51-16.41,19.92-27.7,27.03
					c-10.29,5.58-20.58,11.15-30.87,16.71c-1.26,9.21-4.35,32.58,3.67,34.73c1.22,0.33,4.07-2.25,6.21-6.92
					c1.81-3.95,3.71-10.02,5.15-17.95c17.02-6.57,34.02-13.17,51.02-19.8c-1.37,11.36-3.42,22.23-8.13,32.57
					C586.13,632.29,566.19,655.97,542.92,656.82z"/>
				<path class="st5" d="M664.71,654.37c0.56-1.37,1.04-2.55,1.58-3.91c5.68-14.15,11.15-28.46,16.15-42.91
					c-9.24,2.03-13.9,3.05-23.27,5.09c-6.12,11.79-11.92,23.54-17.37,35.66c-16.55-0.2-33.1-0.39-49.65-0.56
					c33.99-37.48,69.25-76.03,96.77-118.62c8.88,1.21,13.28,1.81,22.02,3.02c-1.76,20.34-5.49,40.35-4.52,60.87
					c0,0,10.41-2.38,13.79-3.35c-2.18,19.04-3.22,38-3.51,57.16C699.38,649.37,682.05,651.89,664.71,654.37z M695.52,551.45
					c-11.33,16.35-21.2,33.72-31.01,51c8.48-1.86,12.7-2.79,21.07-4.64C690.04,582.56,694.33,567.36,695.52,551.45z"/>
				<path class="st5" d="M819.46,555.14c-0.37,0-0.56,0.01-0.93,0.02c-3.69,30.22-7.08,60.48-11.04,90.67
					c-16.02,0.12-32.03,0.39-48.05,0.61c15.08-32.9,30.22-65.96,42-100.22c-1.48,0.02-2.96,0.05-4.63,0.07
					c-11.15,0.19-22.25,1.78-33.3,3.23c1.89-5.19,4.14-11.57,5.54-17.06c1.15-4.53,1.73-8.37,1.4-10.76c8.82,1,17.02,1.21,25.42,1.1
					c8.39-0.11,17.16-0.53,27.08-0.95c-0.46,2.22-1.65,7.76-1.35,8.11c2.02,2.28,26.17-3.04,39.16-5.31
					c-1,3.95-1.85,7.92-2.59,12.09c-1.19,6.74-2.19,13.95-3.04,21.13C843.37,556.02,831.33,554.98,819.46,555.14z"/>
				<path class="st5" d="M901.47,645.45c-0.4,0.01-0.62,0-0.8-0.2c-29.91-0.19-40.21-28.21-40.98-53.56
					c12.76,1.61,25.53,3.24,38.29,4.88c-0.9,9.36-3.45,36.18,4.38,38.59c2.32,0.72,7.67-6.27,10.02-11.61
					c1.72-3.9,3.74-10.77,4.4-17.1c0.97-9.31-0.77-18.23-9.94-19.98c-10.19-1.79-47.12-0.75-42.32-20.26
					c4.98-20.27,24.07-45,46.05-45.64c0.17,0,0.34,0,0.51,0c22.19,0.32,35.07,22.42,36.01,42.34c-11.21,2.09-22.42,4.17-33.64,6.26
					c0.41-2.06,0.66-4.14,0.82-5.97c0.66-7.4,2.61-28.45-4.05-30.35c-1.91-0.55-6.32,4.89-9.64,12.91
					c-2.72,6.57-4.41,12.12-5.01,16.52c-1.38,10.15,3.35,14.09,12.99,14.34c13.88,0.37,46.1,1.61,44.52,22.2
					C951.47,620.06,922.29,644.71,901.47,645.45z"/>
				<path class="st5" d="M1054.72,584.35c1.17,26.19-16.27,56.68-44.62,56.99c-1.21,0.01-2.47-0.2-3.69-0.2
					c-27.88-1.89-41.96-33.36-41.48-57.64c0.05-2.47,0.31-5.11,0.56-7.73c2.87-22.69,18.4-49.83,44.14-49.87
					c1.02,0,2.04,0.16,3.06,0.16c24.56,2.46,38.74,28.44,41.45,50.56C1054.43,579.07,1054.58,581.7,1054.72,584.35z M1019.7,579.84
					c-1.91-11.84-3.17-36.26-15.13-43.53c0,0,0,0-0.17,0c-8.19,6.79-6.6,22.16-6.31,31.86c0.12,3.94,0.44,8.28,0.77,12.86
					c1.7,13.02,8.86,48.3,16.25,47.94c5.57-0.27,6.53-27.07,6.06-35.96C1020.93,588.75,1020.36,584.23,1019.7,579.84z"/>
				<path class="st5" d="M1162.97,572.41c1.36,4.81,2.23,7.8,2.23,7.8c8.86,27.66,0.8,68.94-34.39,69.25
					c-1.44,0.01-2.71,0-4.21-0.21c-31.47-3.09-44.88-43.65-49.57-69.54c-4.16,0.12-6.23,0.18-10.39,0.3
					c-0.49-4.73-1.09-9.06-1.62-12.8c-1.43-10.06-2.93-20.18-5-30.17c9.4,0.38,18.8,0.78,28.2,1.18c0.42,9.29,1.4,18.76,3.03,27.29
					c3.36,17.52,17.71,69.33,31.28,68.8c8.92-0.34,5.44-33.76,3.09-43.71c-0.8-3.38-1.9-6.57-2.66-9.89c0,0-0.08-0.35-0.28-1.22
					c-4.15-18.18-9.49-36.15-14.53-54.13c14.46-0.62,28.93-1.2,43.4-1.75C1154.58,540.11,1158.39,556.27,1162.97,572.41z"/>
				<path class="st5" d="M1305.27,669.31c-2.81-0.01-5.87-0.63-9.22-1.46c-31.96-9.03-58.2-39.45-78.94-63.56
					c-0.54-0.37-1.14-0.93-1.73-1.49c5.71,14.4,12.08,28.52,19.47,42.14c-11.88,0.15-23.75,0.31-35.63,0.48
					c-4.82-17.4-9.41-34.92-14.8-52.13c-5-15.96-10.75-31.72-16.6-47.42c3.76-0.33,5.64-0.5,9.4-0.83
					c5.01,7.99,7.6,12.04,12.94,20.3c-0.27-0.85-0.59-1.73-0.82-2.55c-6.26-22.31,0.18-51.83,29.14-51.73
					c17.86,0.06,32.65,13.89,39.26,29.93c0.65,1.49,0.96,2.95,1.57,4.47c8.7,21.76,1.36,54.25-22.91,62.74
					c11.44,12.94,28.57,35.6,45.24,37.45c1.92,0.21,2.86-1.67,1.63-4.39c-4.6-10.23-14.63-18.85-23.09-26.66
					c9.42-7.01,18.89-13.95,28.41-20.83c11.3,12.03,22.7,25.13,29.32,40.21C1323.58,646.88,1324.88,669.39,1305.27,669.31z
					 M1207.26,529.82c-0.19,0-0.26-0.05-0.38-0.01c-7.33,2.4-6.02,19.63-4.82,29.7c1.06,5.41,2.41,10.56,3.95,15.07
					c3.56,10.41,8.26,18.18,12.22,18.63c0,0,0.29,0.05,0.4,0.01c6.74-2.52,4.67-20.94,3.21-31.24c-1.13-5.28-2.56-10.34-4.17-14.87
					C1214.09,537.04,1210.94,530.2,1207.26,529.82z"/>
				<path class="st5" d="M1336.8,648.22c-8.56-30.02-15.8-60.51-26.98-89.71c9.54,0.76,19.09,1.53,28.63,2.29
					c14.52,29.99,33.16,57.96,48.98,87.27C1370.55,648.11,1353.68,648.16,1336.8,648.22z M1338.04,548.15
					c0.32,0.83,0.69,1.55,1.21,2.25c0,0-8.98-1.25-19.22-1.5c-5.85-0.14-12.34,0.04-17.87,0.92c-0.16-0.85-0.67-1.9-1.2-3.25
					c-3.84-9.73-7.91-20.38-13.62-29.58c0,0,2.8,0.85,16.22,1.07c9.87,0.16,19.75-0.09,29.63-0.35
					C1333.12,527.86,1334.58,539.2,1338.04,548.15z"/>
				<path class="st5" d="M1458.53,650.14c-0.43,0-0.66-0.01-0.96-0.2c-33.76-2.03-59.76-25.37-78.24-51.92
					c15.82,2.11,31.63,4.2,47.45,6.28c5.58,11.06,15.45,34.64,27.15,36.61c3.17,0.53,5.01-5.66,4.78-10.38
					c-0.17-3.57-1.64-9.95-4.29-15.97c-4.3-9.75-12.31-17.97-23.18-19.92c-19.92-3.47-53.76-1.46-63.63-22.37
					c-9.84-20.85,4.6-47.5,29.47-46.86c0.22,0.01,0.44,0.01,0.67,0.01c28.35,1.7,57.21,22.09,70.63,46.9
					c-13.13,1.64-26.25,3.32-39.37,5.04c-0.72-2.1-1.66-4.24-2.54-6.14c-4.38-9.4-12.52-30.75-23.13-32.43
					c-3.08-0.49-5.91,5.1-5.01,13.5c0.73,6.85,2.28,12.66,4.27,17.18c4.37,9.94,14.27,15.12,24.86,15.3
					c19.76,0.32,56.97,2.53,66.14,23.74C1501.78,627.51,1476.52,650.12,1458.53,650.14z"/>
			</g>
		</g>
	</g>
</g>
<g id="Isolation_Mode">
</g>
<g id="LOGO_CUTOUT_FROM_FISHEYE">
	<g>
		<ellipse class="st6" cx="952.51" cy="542.38" rx="616.01" ry="276.95"/>
		<ellipse class="st7" cx="952.51" cy="542.38" rx="616.01" ry="276.95"/>
	</g>
</g>
</svg>
